<?xml version="1.0" encoding="utf-8"?>
<!-- Generator: Adobe Illustrator 21.1.0, SVG Export Plug-In . SVG Version: 6.00 Build 0)  -->
<svg version="1.1" id="Layer_1" xmlns="http://www.w3.org/2000/svg" xmlns:xlink="http://www.w3.org/1999/xlink" x="0px" y="0px"
	 viewBox="0 0 448.8 96.7" style="enable-background:new 0 0 448.8 96.7;" xml:space="preserve">
<style type="text/css">
	.st0{fill:#F6AF06;}
	.st1{fill:#FEFEFE;}
	.st2{fill:#010101;}
	.st3{fill:#030303;}
	.st4{fill:#080808;}
	.st5{fill:#D3D3D3;}
	.st6{fill:#202020;}
	.st7{fill:#B0B0B0;}
	.st8{fill:#717171;}
	.st9{fill:#4C4C4C;}
</style>
<g>
	<g>
		<path class="st0" d="M324.4,75.2c-35.4,0-70.9,0-106.3,0c-1,0-2.1,0.1-3.1,0.1c-0.4,0-1,0-1-0.6c0-0.5,0.3-0.8,0.8-0.9
			c1.4-0.4,2.4-1.3,3.6-2c3.6-2.3,5.3-5.9,6.7-9.7c0.6-1.7,0.6-3.6,0.6-5.4c0.1-5.6,0-11.1,0-16.7c0-3.8-0.9-7.2-2.9-10.4
			c-0.6-0.9-1.2-1.8-2.1-2.4c-0.6-0.4-1.1-0.9-1.5-1.5c-0.5-0.7-1.2-1.3-2.1-1.6c-0.9-0.3-1.6-1-2.3-1.5c-0.3-0.3-0.4-0.6-0.3-0.9
			c0.1-0.4,0.5-0.3,0.8-0.3c5.7,0.1,11.4-0.2,17.1,0.1c1.2,0.1,2.5-0.1,3.7-0.1c9.3,0,18.6,0,28,0c8.4,0,16.8-0.1,25.1,0
			c4.8,0.1,9.6-0.1,14.5,0c2.4,0.1,4.8-0.1,7.2-0.1c3,0.1,6,0,9,0c11.3,0,22.7-0.1,34,0c3.1,0,6.1,0.2,9.2,0.1
			c4.8-0.1,9.6,0,14.4-0.1c2.8-0.1,5.6,0.2,8.4,0.1c6-0.2,12,0,18-0.1c4.4-0.1,8.9-0.1,13.3,0c2.3,0.1,4.6-0.2,6.9-0.1
			c2.3,0.1,4.7,0.2,7,0c1.4-0.1,2,0.5,2,1.9c0,4.1-0.2,8.2,0,12.2c0.1,3.8-0.1,7.5,0,11.3c0.1,8.9,0.1,17.8,0.1,26.8
			c0,1.3-0.5,1.8-1.8,1.8C395.6,75.1,360,75.1,324.4,75.2C324.4,75.1,324.4,75.1,324.4,75.2z"/>
		<path d="M211.4,37.5c-4.6-9-14.2-13.9-24.7-12.5c-11.6,1.5-20.3,11.3-20.2,22.9c0,2.8,0.4,5.5,1.4,8.1
			c4.1,10.7,15.6,16.8,27.4,14.4C210.2,67.4,218.3,50.9,211.4,37.5z M190.2,62.9c-8.3,0-14.9-6.7-14.9-15.1
			c0-8.4,6.7-15.1,14.9-15.1c8.2,0,14.8,6.7,14.8,15.1C205,56.1,198.4,62.9,190.2,62.9z"/>
		<path d="M133.4,68c-1.8-2.4-3.6-4.7-5.4-7.1c-2.7-3.5-5.3-7.1-8-10.6c0.3-0.1,0.5-0.2,0.8-0.3c4.4-1.1,7.1-3.9,8-8.4
			c0.3-1.5,0.4-3.1,0.3-4.7c-0.3-6.3-4.4-10.7-10.7-11.3c-4.7-0.5-9.3-0.2-14-0.2c-1.1,0-1.4,0.6-1.4,1.6c0,13.8,0,27.5,0,41.3
			c0,1.1,0.5,1.6,1.6,1.6c1.6,0,3.3,0,4.9,0c1.3,0,1.7-0.4,1.7-1.7c0-5.2,0-10.3,0-15.5c0-0.4,0-0.8,0-1.4c0.5,0.6,0.8,1,1.1,1.4
			c4,5.5,8.1,10.9,12.1,16.4c0.4,0.6,0.9,0.9,1.7,0.9c2.2-0.1,4.3,0,6.5,0c0.6,0,0.9-0.1,1.2-0.7C134,68.7,133.7,68.4,133.4,68z
			 M116.5,43.3c-1.3,0.3-2.7,0.3-4,0.4c-0.7,0-0.9-0.2-0.8-0.9c0-1.5,0-3,0-4.6c0-1.5,0-3,0-4.6c0-0.6,0.2-0.8,0.7-0.7
			c1.7,0.1,3.3,0.2,5,0.6c1.7,0.5,2.7,1.6,3,3.4c0.1,0.5,0.2,0.9,0.2,1.4C120.5,41.5,119.5,42.8,116.5,43.3z"/>
		<path d="M53.1,62.4c0,0.6-0.1,1.1,0,1.7c0.4,1.9-0.6,2.9-2.1,3.8C40.1,74.2,20.4,71.4,16,53.8c-3.5-14,5-26.5,18.3-28.8
			C41,23.9,47.3,25.2,53,29c0.5,0.3,0.6,0.6,0.6,1.2c-0.2,2-0.3,4-0.4,6c0,0.5-0.1,0.9-0.6,1.1c-0.6,0.3-0.9,0.1-1.4-0.3
			c-4.9-3.8-10.4-5.2-16.4-3.7c-6.2,1.5-10.2,6.7-10.6,13.5c-0.4,6.8,3.1,13,9,15.1c5.2,1.9,10.1,1,14.9-1.5
			c1.1-0.6,2.2-1.3,3.2-2.1c0.5-0.4,0.8-0.4,1.4-0.2c0.6,0.3,0.6,0.6,0.6,1.1C53.1,60.2,53.1,61.3,53.1,62.4z"/>
		<path d="M98.6,68.1c-6.7-13.8-13.3-27.6-20-41.5c-0.2-0.5-0.4-0.8-1-0.8c-0.6,0-0.9,0.2-1.2,0.8c-6.7,13.8-13.3,27.6-20,41.5
			c-0.5,1.1-0.1,1.8,1.2,1.8c2,0,4.1,0,6.1,0c0.7,0,1-0.3,1.3-0.9c1.4-3.1,2.8-6.2,4.2-9.3c0.3-0.6,0.5-0.9,1.3-0.9
			c4.7,0,9.4,0,14.2,0c0.7,0,1,0.3,1.3,0.9c0.9,2.2,1.9,4.4,2.9,6.6c0.5,1.2,0.7,2.8,1.6,3.4c1,0.6,2.5,0.1,3.9,0.1c0,0,0,0.1,0,0.1
			c1.1,0,2.2,0,3.2,0C98.6,69.9,99.1,69.1,98.6,68.1z M81.3,51.6c-2.5-0.1-5,0-7.6,0c-0.3,0-0.9,0.2-0.6-0.6c1.5-3.1,3-6.3,4.5-9.5
			c1.3,3.2,2.8,6.1,4.2,9.1C82.3,51.4,82.2,51.6,81.3,51.6z"/>
		<path d="M145.2,51.2c0-5.7,0-11.4,0-17.2c0-0.9-0.2-1.1-1.1-1.1c-2.9,0.1-5.8,0-8.8,0c-1.1,0-1.6-0.5-1.6-1.6c0-1.5,0-3,0-4.4
			c0-1,0.4-1.5,1.5-1.5c9.4,0,18.9,0,28.3,0c1.1,0,1.5,0.5,1.5,1.6c0,1.4,0,2.8,0,4.2c0,1.4-0.3,1.8-1.7,1.8c-2.8,0-5.6,0-8.4,0
			c-1,0-1.3,0.2-1.3,1.2c0,11.2,0,22.5,0,33.7c0,1.4-0.2,2.1-2.1,2c-1.5-0.1-3,0-4.6,0c-1.6,0-1.9-0.2-1.9-1.8
			C145.2,62.4,145.2,56.8,145.2,51.2z"/>
		<path class="st1" d="M325.3,46.1c2.6,0,5.1,0,7.7,0c0.4,0,0.9-0.2,0.9,0.5c0,3.9,0.2,7.8-1.2,11.6c-2.2,5.8-6.6,9.1-12.5,10.4
			c-3.1,0.7-6.3,0.6-9.5,0.4c-4.5-0.4-8.6-1.9-12.1-4.9c-3.8-3.2-6-7.3-7.1-12c-1.2-5.5-0.8-10.9,1.9-16c3.2-6.1,8.3-9.9,15.2-11.2
			c4.8-0.9,9.6-0.9,14.2,1c2.8,1.1,5.3,2.9,7.2,5.3c0.3,0.4,0.3,0.7-0.1,1c-1.5,1.1-2.9,2.1-4.4,3.2c-0.4,0.3-0.5,0.3-0.8,0
			c-3-3.1-6.7-4.2-11-4.2c-4.6,0-8.4,1.6-11.4,4.9c-2.3,2.5-3.4,5.5-3.7,8.9c-0.3,3.4,0.2,6.7,1.8,9.8c2.3,4.2,5.8,6.6,10.5,7.4
			c3.9,0.6,7.8,0.5,11.4-1.5c2.8-1.6,4.3-4,4.7-7.2c0.1-0.8-0.1-1.2-1.1-1.2c-2.8,0.1-5.5,0-8.3,0c-0.8,0-1-0.2-1-1
			c0.1-1.4,0.1-2.9,0-4.3c0-0.8,0.3-1,1-1C320.2,46.1,322.7,46.1,325.3,46.1z"/>
		<path class="st1" d="M344,46.9c0-6.8,0-13.7,0-20.5c0-0.9,0.2-1.2,1.1-1.1c1.7,0.1,3.4,0.1,5,0c0.9,0,1.1,0.3,1.1,1.1
			c0,4.5,0,9,0,13.6c0,0.9,0.2,1.2,1.2,1.2c6.2,0,12.4,0,18.6,0c1,0,1.2-0.3,1.2-1.2c0-4.5,0-9,0-13.6c0-0.9,0.2-1.2,1.1-1.1
			c1.7,0.1,3.4,0.1,5.2,0c0.7,0,1,0.1,1,0.9c0,13.8,0,27.6,0,41.4c0,0.7-0.2,1-0.9,0.9c-1.8-0.1-3.5-0.1-5.3,0c-0.9,0-1-0.3-1-1.1
			c0-6.2,0-12.4,0-18.6c0-1-0.2-1.3-1.2-1.2c-6.2,0.1-12.3,0.1-18.5,0c-1,0-1.2,0.3-1.2,1.3c0,6.2,0,12.3,0,18.5
			c0,0.9-0.2,1.2-1.2,1.2c-1.6-0.1-3.3-0.1-4.9,0c-1,0.1-1.2-0.3-1.2-1.2C344,60.5,344,53.7,344,46.9z"/>
		<path class="st1" d="M248.2,69.1c-2.5,0.2-4.8-0.2-7.1-1.2c-3.5-1.6-5.5-4.3-6.6-7.9c-0.1-0.4,0-0.8,0.5-1
			c1.5-0.7,3.1-1.4,4.6-2.1c0.6-0.3,0.7,0.2,0.9,0.7c1.9,5,8.6,5.9,11.9,3.7c3.3-2.2,3.5-6.6,0.1-9.2c-2.2-1.7-4.7-2.6-7.1-3.9
			c-2.7-1.4-5.3-2.9-7.4-5.2c-1.5-1.6-2.2-3.6-2.4-5.7c-0.2-2.7,0.1-5.2,1.7-7.6c1.7-2.6,4.2-4.3,7.2-4.9c3.3-0.7,6.7-0.7,10,0.4
			c2.6,0.9,4.7,2.5,6.1,4.9c0.7,1.3,0.7,1.4-0.6,2.1c-1.2,0.6-2.4,1.1-3.5,1.8c-0.9,0.6-1.4,0.2-1.8-0.5c-2-3.4-7-3.7-9.6-1.7
			c-2.7,2.1-2.7,5.4,0.3,8c2.6,2.2,5.9,3.3,8.8,4.9c2.6,1.4,5,2.9,6.6,5.4c1,1.4,1.4,3,1.4,4.6c0,2.1,0.1,4.2-0.7,6.3
			c-1.3,3.5-3.7,5.8-7.1,7.1C252.5,69,250.4,69.3,248.2,69.1z"/>
		<path class="st1" d="M398.9,49.9c0-5.8,0-11.5,0-17.3c0-0.9-0.2-1.2-1.2-1.2c-3.1,0.1-6.2,0-9.4,0c-0.9,0-1.1-0.3-1-1.1
			c0.1-1.4,0.1-2.7,0-4.1c-0.1-0.9,0.2-1.1,1.1-1.1c6.1,0,12.2,0,18.2,0c3.2,0,6.4,0,9.6,0c0.8,0,1.1,0.1,1.1,1
			c-0.1,1.4-0.1,2.9,0,4.3c0,0.8-0.2,0.9-0.9,0.9c-3,0-6,0-9,0c-1.1,0-1.4,0.2-1.4,1.3c0,11.4,0,22.7,0.1,34.1
			c0,1.1-0.3,1.4-1.4,1.3c-1.6-0.1-3.2,0.3-4.9,0.3c-0.8,0-1-0.2-1-1C398.9,61.6,398.9,55.8,398.9,49.9z"/>
		<path class="st1" d="M280.1,46.9c0,6.8,0,13.6,0,20.4c0,1-0.3,1.2-1.2,1.2c-1.7-0.1-3.4,0-5.2,0c-0.7,0-0.9-0.2-0.9-0.9
			c0-13.8,0-27.7,0-41.5c0-0.7,0.2-0.9,0.9-0.9c1.7,0,3.4,0.1,5.2,0c0.9,0,1.2,0.2,1.2,1.2C280.1,33.2,280.1,40.1,280.1,46.9z"/>
		<path class="st2" d="M189.9,52.4c-1-0.2-1.9-0.3-2.9-1.2c-1-1-2.7-1.7-4.3-2.1c-0.5-0.1-1.2,0.3-1.2,0.9c0,0.5-0.2,0.8-0.3,1.2
			c-0.2,0.5-0.2,1,0.3,1.5c1.2,1.3,2.5,2.5,2.7,4.5c0.1,0.9,0.7,1.7,1.9,2.2c-0.4-0.8-0.3-1.3,0.3-1.7c1.6-0.9,3.1-2,4.1-3.6
			C191.2,53,191.2,52.6,189.9,52.4z"/>
		<path d="M203.1,46.8c-0.3-0.4-0.1-0.8-0.2-1.3c-0.3-0.8-0.6-1.4-1.6-1.3c-1.4-0.5-2.7-0.8-4,0.1c-0.5,0.7-0.9,1.4-1.4,2.1
			c-0.7,0.8-0.4,2.3,0.2,3c0.8,1,1.7,1.2,2.8,0.6c0.5-0.2,1.2-0.5,1.4,0.2c0.2,0.9,0.5,1.8,0,2.8c-0.4,0.8-0.5,1.8-0.8,2.8
			C201.8,54.6,203.6,49.9,203.1,46.8z"/>
		<path class="st2" d="M186.2,39.6c-0.6-1.2-1.6-1.2-2.4-0.1c-0.2,0.4-0.4,0.8-0.8,1c-1.1-1.6-1.1-1.6,0.4-2.6
			c0.2-0.1,0.3-0.2,0.4-0.4c-0.4-0.7-1.1-0.4-1.7-0.5c-2.8,2.3-4.8,5-4.4,8.9c0.1,0.6,0.1,1.3,0.7,1.6c0.8,0.4,1.2,1.1,1.9,1.7
			c-0.5-0.7,0.1-1.9-1.3-2.1c-0.3,0-0.3-0.4-0.3-0.6c0-0.6,0.2-1,0.7-1.3c0.7-0.3,1.2,0.2,1.7,0.7c0.2-1.1,1-1.7,1.6-2.4
			c0.6-0.7,1.5-1.2,2.6-1.1c-0.3-0.4-0.5-0.7-0.7-1c0.7-0.2,1.4-0.4,2-0.7C186.6,40.3,186.4,39.9,186.2,39.6z"/>
		<path class="st3" d="M203,45.2c-0.6-3.8-2.2-6.9-6-8.5c-0.2-0.1-0.5-0.3-0.8,0c0.6,0.8,0,2.3,1.6,2.5c0.2,0.3,0.5,0.5,0.7,0.2
			c0.3-0.5-0.2-0.7-0.5-0.9c0,0,0.2,0.1,0,0c1,0.8,1,0.8,0,1.4c-0.1,0.1-0.2,0.2-0.2,0.3c0.1,0.7-1.4,1.2-0.3,2
			c0.1,0.1-0.1,0.3-0.2,0.3c-1.5,0-0.7,0.9-0.5,1.5c0.7,0.4,1.1,0.1,1.4-0.5c0.5-0.9,1.1-1.3,2.1-0.8c0.7,0.4,0.8-0.2,1-0.6
			c-0.1,0.4-0.3,0.8,0.1,1.1c0.5,0.4,0.5,0.7,0,1c-0.2,0.1-0.2,0.3-0.1,0.5c0.4-0.2,0.7-0.1,1,0.3c0.5,0.6,0.4,1.4,0.8,1.9
			C203.1,46.3,203.1,45.7,203,45.2z"/>
		<path class="st4" d="M190.9,34.9c-1.3-0.1-2.7-0.1-4.4,0.4c1.6,0,2.3,1,1.8,2.2c-0.2,0.6,0.1,0.9,0.5,1.2c0.5,0.4,0.7,0.1,0.9-0.3
			c0.4-0.5,0.9-0.8,1.4-1c0.3-0.1,1-0.1,0.8-0.8C191.7,36,191.8,35,190.9,34.9z"/>
		<path class="st5" d="M202.4,43.6c-1-0.5-0.7-1.4-0.8-2.2c0-0.1-0.2-0.2-0.3-0.3c-0.5,0.5,0.3,1.3-0.4,1.7
			c-0.4-0.1-0.5-0.9-1.4-0.6c-0.8,0.2-1.2,0.5-1.4,1.2c-0.2,0.6-0.6,0.8-1.2,0.7c0.2,0.2,0.3,0.3,0.5,0.5c1.3-0.3,2.5-0.5,3.8,0.2
			c0.1,0,0.2,0,0.2,0c0.1-0.3,0.3-0.4,0.6-0.4C202.3,44.2,202.5,43.7,202.4,43.6z"/>
		<path class="st6" d="M185.1,36.2c-0.7,0.6-1.3,0.8-2.1,0.5c-0.4-0.2-0.5,0.1-0.7,0.3c0.5,0.3,1.2,0.1,1.7,0.5
			c0.7,0.2,1.2-0.6,1.9-0.6c-0.1,0.6-0.6,0.5-0.8,0.9c0.6,0.8,0.9,0.6,1.6-0.1c0.8-0.8-0.3-1.2-0.2-1.8
			C185.9,36.1,185.4,36,185.1,36.2z"/>
		<path class="st7" d="M197.4,37.7c0.1,0.7,0.8,1,1.1,1.6c-0.3,0.2-0.5-0.2-0.7-0.2c-0.4,0.3-0.2,0.6,0,0.9c0.3-0.5,1.2,0.3,1.3-0.6
			C199.2,38.9,198.6,38.4,197.4,37.7z"/>
		<path class="st8" d="M195.8,39.1c0,0.5-0.2,0.8-0.3,1.1c-0.3,1.4,1-0.6,1,0.5c0,0.1,0.3,0.1,0.4-0.1
			C197,39.8,196.3,39.6,195.8,39.1z"/>
		<path class="st9" d="M186.6,41.2c-0.1,0-0.3,0.2-0.3,0.3c0.2,0.5,0.6,0.5,1.1,0.5C187.2,41.5,187.2,41.1,186.6,41.2z"/>
	</g>
</g>
</svg>
