<?xml version="1.0" encoding="utf-8"?>
<!-- Generator: Adobe Illustrator 21.1.0, SVG Export Plug-In . SVG Version: 6.00 Build 0)  -->
<svg version="1.1" id="Layer_1" xmlns="http://www.w3.org/2000/svg" xmlns:xlink="http://www.w3.org/1999/xlink" x="0px" y="0px"
	 viewBox="0 0 146 48.2" style="enable-background:new 0 0 146 48.2;" xml:space="preserve">
<style type="text/css">
	.st0{fill:#F6B006;}
	.st1{fill:#FEFEFE;}
	.st2{fill:#FEFEFD;}
</style>
<g>
	<g>
		<path class="st0" d="M48.6,36.4c0.6-0.2,1.2-0.5,1.8-0.7c0.9-0.4,1.6-1,2.4-1.7c2.1-1.9,3.6-4.1,3.5-7c0-1.5,0.1-3.1,0-4.6
			c-0.2-2.1-0.8-4.1-2.3-5.6c-0.9-1-1.9-2-3.1-2.5c-0.7-0.3-1.3-0.6-1.9-1c0.9,0,1.8-0.1,2.6,0c0.8,0.1,1.7,0.1,2.5,0.1
			c1.7,0.1,3.5,0.1,5.2,0c4.6-0.1,9.1,0,13.7,0c3.5,0,7,0,10.5,0c2,0,4.1-0.1,6.1,0c1,0,2-0.1,3.1,0c1.4,0.1,2.8,0,4.1,0
			c4.7,0,9.3,0,14,0c1.4,0,2.8,0.1,4.2,0c2.2-0.1,4.4,0,6.6,0c1,0,2-0.2,3,0.1c0.3,0.1,0.6-0.1,0.9-0.1c4.2,0,8.4-0.1,12.6,0
			c1.4,0,2.9-0.2,4.3,0c0.4,0.1,0.9-0.1,1.3-0.1c0.9,0,1.1,0.1,1.1,1c0,1.8,0,3.5,0,5.3c0,5.3,0,10.5,0,15.8c0,0.8-0.1,0.9-0.9,0.9
			c-29.6,0-59.2,0-88.9,0c-0.9,0-1.8,0-2.8,0.1c-0.6,0.1-1.2-0.3-1.9-0.1C49.7,36.5,49.1,36.4,48.6,36.4z"/>
		<path d="M20.6,20.2c-1.1-3-3.3-4.8-6.4-5.2c-2.9-0.4-5.9-0.3-8.8-0.3c-0.6,0-0.8,0.3-0.8,0.9c0,3,0,5.9,0,8.9c0,0,0,0,0,0
			c0,3,0,6,0,9c0,0.6,0.1,0.7,0.7,0.7c2.8,0.1,5.5,0.1,8.3-0.1c3.5-0.3,6-2.2,7.1-5.5C21.6,25.8,21.6,22.9,20.6,20.2z M16.3,27.5
			c-0.8,1.7-2.2,2.6-4.1,2.7c-1,0.1-2,0-3.1,0.1c-0.3,0-0.4-0.1-0.4-0.4c0-1.8,0-3.7,0-5.5c0-1.8,0-3.6,0-5.4c0-0.3,0.1-0.5,0.4-0.5
			c1.2,0,2.3,0,3.5,0.1c2.1,0.3,3.4,1.5,4,3.5C17.2,24,17.1,25.8,16.3,27.5z"/>
		<path d="M43.9,34.6c-1.1,0-2.4-0.2-3.5-0.9c-1.4-0.8-2.2-2-2.5-3.5c-0.2-0.7-0.1-0.8,0.6-1.1c0.5-0.2,1.1-0.5,1.6-0.7
			c0.3-0.2,0.6-0.1,1-0.1c0.3,0,0.4,0.3,0.5,0.5c0.6,1.4,2.2,2.2,3.7,1.7c0.4-0.2,0.8-0.4,1.1-0.8c0.5-0.7,0.4-1.3-0.1-2
			c-0.5-0.5-1-0.9-1.6-1.2c-1.3-0.6-2.6-1.3-3.9-2.1c-3.3-2-2.8-7-0.6-8.7c0.9-0.7,1.9-1.1,3-1.3c1.8-0.2,3.6-0.2,5.3,0.8
			c0.9,0.5,1.6,1.3,1.9,2.3c0.2,0.6,0.1,0.9-0.4,1.1c-0.6,0.3-1.3,0.6-1.9,1c-0.3,0.2-0.6,0-0.9,0.1c-0.1,0.1-0.2-0.2-0.3-0.4
			c-0.6-0.8-1.3-1.4-2.4-1.2c-0.4,0.1-0.8,0.2-1.1,0.6c-0.6,0.6-0.6,1.2-0.1,1.8c0.5,0.6,1.1,1,1.7,1.3c1.1,0.6,2.3,1.1,3.4,1.7
			c1.4,0.9,2.5,1.9,2.7,3.6c0.3,2.7-0.3,5.1-2.8,6.6C47,34.4,45.8,34.6,43.9,34.6z"/>
		<path d="M29.2,34.6c-1.1,0-2.4-0.2-3.5-0.9c-1.4-0.8-2.2-2-2.5-3.5c-0.2-0.7-0.1-0.8,0.6-1.1c0.5-0.2,1.1-0.5,1.6-0.7
			c0.3-0.2,0.6-0.1,1-0.1c0.3,0,0.4,0.3,0.5,0.5c0.6,1.4,2.2,2.2,3.7,1.7c0.5-0.2,0.9-0.5,1.1-0.9c0.4-0.7,0.4-1.3-0.2-1.9
			c-0.5-0.5-1-0.9-1.6-1.2c-1.3-0.6-2.6-1.3-3.9-2.1c-3.3-2-2.8-7-0.6-8.7c0.9-0.7,1.9-1.1,3-1.3c1.8-0.2,3.6-0.2,5.3,0.8
			c0.9,0.5,1.6,1.3,1.9,2.3c0.2,0.6,0.1,0.9-0.5,1.2c-0.6,0.3-1.3,0.6-1.9,1c-0.3,0.2-0.6,0-0.9,0.1c-0.1,0.1-0.2-0.2-0.3-0.4
			c-0.6-0.8-1.3-1.4-2.4-1.2c-0.4,0.1-0.8,0.2-1.1,0.6c-0.6,0.5-0.6,1.2-0.1,1.8c0.5,0.6,1.1,1,1.7,1.3c1.1,0.6,2.3,1.1,3.4,1.7
			c1.4,0.9,2.5,1.9,2.7,3.6c0.3,2.7-0.3,5.1-2.8,6.6C32.3,34.4,31,34.6,29.2,34.6z"/>
		<path class="st1" d="M98.9,24c1.1,0,2.2,0,3.3,0c0.4,0,0.6,0.2,0.7,0.5c0.2,1.5,0.1,3-0.3,4.5c-0.6,2.3-2.1,4-4.3,4.9
			c-1.6,0.7-3.4,0.8-5.1,0.7c-2-0.1-4-0.7-5.6-2c-1.2-1-2.2-2.2-2.8-3.7c-0.7-1.7-1-3.5-0.8-5.3c0.2-2.3,1-4.2,2.6-5.9
			c1.6-1.7,3.5-2.6,5.8-2.9c2.6-0.4,5,0,7.2,1.4c0.6,0.4,1.2,1,1.7,1.6c0.3,0.3,0.1,0.7-0.1,0.9c-0.6,0.5-1.3,1-2,1.5
			c-0.2,0.1-0.4,0.2-0.6,0c-1.3-1.5-3.1-2-5.1-1.8c-2.8,0.2-5.1,2.1-5.5,5c-0.3,1.7-0.1,3.4,0.8,4.9c0.9,1.5,2.3,2.4,3.9,2.7
			c1.4,0.3,2.9,0.2,4.3-0.4c1.2-0.5,2.1-1.7,2.2-2.9c0-0.3-0.1-0.3-0.3-0.3c-1.1,0-2.2,0-3.3,0c-0.6,0-0.7-0.2-0.7-0.7
			c0-0.6,0-1.3,0-1.9c0-0.5,0.2-0.7,0.7-0.7C96.7,24,97.8,24,98.9,24z"/>
		<path class="st1" d="M121.7,24.7c0,2.9,0,5.8,0,8.8c0,0.7-0.2,0.8-0.8,0.8c-0.7,0-1.4,0-2.1,0c-0.6,0-0.8-0.2-0.8-0.8
			c0-2.5,0-5,0-7.6c0-0.4-0.1-0.6-0.5-0.6c-2.4,0-4.9,0-7.3,0c-0.4,0-0.5,0.1-0.5,0.4c0,2.6,0,5.1,0,7.7c0,0.6-0.2,0.8-0.8,0.8
			c-0.7,0-1.4,0-2.1,0c-0.7,0-0.8-0.2-0.8-0.8c0-4.6,0-9.2,0-13.8c0-1.3,0-2.5,0-3.8c0-0.5,0.2-0.7,0.7-0.7c0.7,0,1.5,0,2.2,0
			c0.6,0,0.8,0.2,0.8,0.7c0,1.8,0,3.7,0,5.5c0,0.4,0.1,0.6,0.5,0.5c2.4,0,4.9,0,7.3,0c0.4,0,0.5-0.1,0.5-0.5c0-1.8,0-3.7,0-5.5
			c0-0.6,0.2-0.8,0.7-0.8c0.7,0,1.4,0,2.1,0c0.7,0,0.8,0.1,0.8,0.8C121.7,18.9,121.7,21.8,121.7,24.7z"/>
		<path class="st1" d="M67.2,34.7c-1.5-0.1-2.9-0.3-4.2-1.2c-1.1-0.8-1.7-2-2-3.3c0-0.2,0-0.3,0.2-0.4c0.7-0.3,1.5-0.7,2.2-1
			c0.3-0.1,0.7,0.1,0.9,0.6c0.3,0.7,0.7,1.2,1.4,1.5c1,0.4,2,0.5,3-0.1c1.2-0.7,1.4-2.2,0.5-3.1c-0.7-0.7-1.7-1.1-2.6-1.6
			c-1.3-0.7-2.7-1.3-3.7-2.4c-0.8-0.8-1.2-1.7-1.3-2.8c-0.1-1.1,0-2.1,0.5-3.1c0.8-1.6,2.2-2.4,4-2.8c1.4-0.2,2.7-0.1,4.1,0.3
			c1.4,0.5,2.5,1.4,3,2.9c0.1,0.3,0,0.4-0.2,0.5c-0.8,0.4-1.6,0.8-2.3,1.2c-0.2,0.1-0.3,0.1-0.5-0.1c-0.6-0.9-1.4-1.6-2.6-1.5
			c-0.8,0.1-1.6,0.5-1.8,1.1c-0.3,0.8-0.1,1.5,0.6,2.1c0.7,0.6,1.5,1,2.3,1.4c1.4,0.6,2.7,1.3,3.8,2.4c1.2,1.1,1.5,2.6,1.3,4.1
			c-0.1,1-0.3,2-0.9,2.8c-1,1.4-2.4,2.2-4.1,2.5C68.1,34.6,67.6,34.7,67.2,34.7z"/>
		<path class="st2" d="M132.5,26.2c0,2.4,0,4.8,0,7.2c0,0.7-0.1,0.8-0.8,0.8c-0.7,0-1.4,0-2.1,0c-0.7,0-0.8-0.2-0.8-0.8
			c0-4.8,0-9.6,0-14.4c0-0.4-0.1-0.6-0.5-0.6c-1.2,0-2.3,0-3.5,0c-0.6,0-0.8-0.1-0.8-0.8c0-0.6,0-1.3,0-1.9c0-0.4,0.2-0.7,0.6-0.7
			c4,0,8.1,0,12.1,0c0.4,0,0.6,0.2,0.6,0.7c0,0.7,0,1.4,0,2c0,0.5-0.2,0.7-0.7,0.7c-1.2,0-2.4,0-3.5,0c-0.4,0-0.6,0.1-0.6,0.6
			C132.5,21.5,132.5,23.8,132.5,26.2z"/>
		<path class="st1" d="M76.8,24.7c0-2.9,0-5.8,0-8.8c0-0.7,0.2-0.8,0.8-0.8c0.8,0,1.5,0,2.3,0c0.5,0,0.7,0.2,0.7,0.7
			c0,5.9,0,11.8,0,17.7c0,0.6-0.2,0.8-0.8,0.8c-0.7,0-1.4,0-2.1,0c-0.7,0-0.8-0.1-0.8-0.9C76.8,30.5,76.8,27.6,76.8,24.7z"/>
	</g>
</g>
</svg>
