<?xml version="1.0" encoding="utf-8"?>
<!-- Generator: Adobe Illustrator 21.1.0, SVG Export Plug-In . SVG Version: 6.00 Build 0)  -->
<svg version="1.1" id="Layer_1" xmlns="http://www.w3.org/2000/svg" xmlns:xlink="http://www.w3.org/1999/xlink" x="0px" y="0px"
	 viewBox="0 0 457.7 96.7" style="enable-background:new 0 0 457.7 96.7;" xml:space="preserve">
<style type="text/css">
	.st0{fill:#F6AF06;}
	.st1{fill:#FEFEFE;}
	.st2{fill:none;}
</style>
<g>
	<g>
		<path class="st0" d="M333.3,75.2c-35.4,0-70.9,0-106.3,0c-1,0-2,0.1-3,0.1c-0.4,0-1.1,0.1-1.1-0.6c-0.1-0.6,0.4-0.9,0.9-1
			c1.4-0.4,2.4-1.3,3.6-2.1c3.6-2.3,5.2-6,6.6-9.7c0.6-1.6,0.5-3.5,0.6-5.3c0.1-5.7,0-11.4,0-17.2c0-3.8-1-7.2-3.2-10.2
			c-1.6-2.2-3.5-4.3-6-5.5c-0.7-0.3-1.2-0.9-1.8-1.3c-0.3-0.2-0.3-0.5-0.3-0.9c0.1-0.5,0.5-0.4,0.8-0.4c5.7,0.1,11.4-0.2,17.1,0.1
			c1.3,0.1,2.5-0.1,3.8-0.1c9.4,0,18.8,0,28.2,0c8.3,0,16.5-0.1,24.8,0c4.8,0.1,9.7-0.2,14.5,0c2.4,0.1,4.8-0.2,7.2-0.1
			c3,0.1,6.1,0,9.1,0c11.3,0.1,22.6-0.1,33.9,0c3.1,0,6.2,0.2,9.3,0.1c4.7-0.1,9.3,0,14-0.1c2.8-0.1,5.7-0.1,8.6,0.1
			c0.9,0.1,1.8-0.2,2.7-0.2c9.6,0,19.2-0.1,28.8,0c2.2,0,4.4-0.1,6.7-0.1c2.1-0.1,4.3,0.4,6.4,0.1c2.4-0.3,2.8,0.2,2.7,2.7
			c0,4.2-0.1,8.3-0.1,12.5c0,7.6,0,15.2,0.1,22.8c0,4.7,0,9.4,0.1,14.2c0,1.4-0.5,1.8-1.9,1.8C404.4,75.1,368.8,75.1,333.3,75.2
			C333.3,75.1,333.3,75.1,333.3,75.2z"/>
		<path d="M201.9,53c2.8-7.7,5.7-15.3,8.4-22.9c0.3-0.8,0.6-1,1.4-1c1.7,0.1,3.4,0,5,0c1.2,0,1.6,0.7,1.2,1.8
			c-4.9,12.9-9.7,25.8-14.6,38.7c-0.2,0.5-0.3,0.9-1,0.9c-0.7,0-0.9-0.4-1.1-0.9c-3.3-8-6.5-15.9-9.8-23.9c-0.2,0-0.2,0.2-0.3,0.4
			c-2.9,8-6.3,15.7-9.4,23.7c-0.2,0.5-0.4,0.8-1,0.8c-0.6,0-0.8-0.3-1-0.8c-4.9-12.9-9.7-25.9-14.6-38.8c-0.4-1.1,0-1.7,1.2-1.7
			c1.7,0,3.4,0,5,0c0.8,0,1.1,0.2,1.3,0.9c2.8,7.5,5.6,15,8.4,22.5c0.1,0.2,0.2,0.3,0.3,0.6c2.8-8,6-15.7,8.9-23.5
			c0.2-0.4,0.1-1,0.8-1.1c0.9-0.1,1.2,0.3,1.5,1c3,7.7,6.2,15.3,9,23C201.8,52.7,201.8,52.8,201.9,53z"/>
		<path class="st0" d="M29.7,51.9c4.6,0.1,9.1,0,13.7,0c4.6,0,9.2,0,13.8,0c0.7,0,1-0.2,1-0.9c0-1.6,0-3.1-0.3-4.7
			c-0.7-4.9-2.7-9.2-6.8-12.2c-4-2.9-8.5-3.6-13.2-3.3c-6.8,0.4-12,3.4-15.5,9.3c-2.7,4.6-3.1,9.6-2.4,14.7c0.7,4.8,2.9,9,6.8,12
			c4,3.1,8.7,4,13.7,3.8c7.5-0.3,13-3.8,16.9-10.2c0.3-0.5,0.3-0.8-0.3-1.1c-2-1-3.9-2.1-5.9-3.2c-0.5-0.3-0.7-0.2-1,0.3
			c-0.5,1-1.2,2-2,2.8c-3.6,3.8-8,4.6-12.8,3.2c-4.5-1.3-6.2-5-6.8-9.3C28.4,52.1,28.7,51.8,29.7,51.9z M41.1,38.1
			c4.6,0.7,7.1,2.9,8,7c0.1,0.6,0.2,1-0.7,1c-6.3,0-12.6,0-19,0c-0.1,0-0.2,0-0.3-0.1C30.2,40.4,35,37.2,41.1,38.1z"/>
		<path d="M161.8,45.5c-1.9-10-10.8-17.2-21.3-17.2c-1.1,0-2.2,0.1-3.2,0.2c-13.3,1.7-21.7,15-17.5,27.7
			c3.4,10.4,14.4,16.4,25.6,14.1C156.7,67.9,164,56.9,161.8,45.5z M140.5,63.4c-7.6,0-13.6-6.1-13.6-13.8c0-7.7,6-13.8,13.6-13.8
			c7.5,0,13.6,6.2,13.6,13.8C154,57.2,147.9,63.4,140.5,63.4z"/>
		<path d="M64.7,49.4c0-6.2,0-12.4,0-18.6c0-1.6,0.2-1.8,1.8-1.8c6.6,0,13.3,0,19.9,0c1.4,0,1.7,0.2,1.7,1.7c0,1.3,0,2.6,0,3.8
			c0,1.1-0.4,1.5-1.5,1.5c-4.3,0-8.6,0-13,0c-0.8,0-1.1,0.2-1.1,1c0.1,2.1,0.1,4.2,0,6.2c0,0.9,0.2,1.2,1.1,1.1
			c4.2-0.1,8.5,0,12.7,0c1.5,0,1.7,0.2,1.7,1.7c0,1.2,0,2.3,0,3.5c0,1.6-0.2,1.8-1.8,1.8c-4.2,0-8.4,0-12.6,0
			c-0.9,0-1.1,0.2-1.1,1.1c0,5.2,0,10.4,0,15.6c0,1.5-0.3,1.8-1.8,1.8c-1.5,0-3,0-4.4,0c-1.3,0-1.6-0.3-1.6-1.6
			C64.7,62,64.7,55.7,64.7,49.4z"/>
		<path d="M95.2,49.5c0-6.2,0-12.5,0-18.7c0-1.5,0.2-1.7,1.7-1.7c1.5,0,3,0,4.6,0c1.4,0,1.7,0.3,1.7,1.7c0,10.2,0,20.4,0,30.6
			c0,1.1,0.3,1.4,1.4,1.3c3.8-0.1,7.5,0,11.3,0c1.3,0,1.6,0.3,1.6,1.6c0,1.4,0,2.8,0,4.2c0,1-0.4,1.4-1.4,1.4c-6.4,0-12.8,0-19.2,0
			c-1.2,0-1.5-0.5-1.5-1.6C95.2,62,95.2,55.7,95.2,49.5z"/>
		<path class="st1" d="M334.2,46.1c2.6,0,5.1,0,7.7,0c0.5,0,0.9-0.1,0.9,0.6c0,3.8,0.2,7.7-1.2,11.4c-2.2,5.9-6.5,9.2-12.5,10.6
			c-3.2,0.7-6.4,0.7-9.6,0.4c-4.4-0.4-8.5-1.9-12-4.8c-3.8-3.2-6.1-7.3-7.1-12c-1.4-7-0.5-13.8,4.1-19.5c3.3-4.1,7.6-6.8,12.9-7.7
			c4.8-0.8,9.6-0.9,14.2,1c2.8,1.1,5.3,2.9,7.3,5.3c0.4,0.5,0.3,0.7-0.1,1c-1.4,1-2.9,2-4.3,3.1c-0.4,0.3-0.6,0.3-0.9-0.1
			c-4.5-4.9-12.7-5.2-18-2.6c-4.3,2.2-7,5.7-7.9,10.6c-0.8,4.5-0.2,8.8,2.4,12.7c2.3,3.5,5.6,5.5,9.8,6.1c3.9,0.6,7.7,0.5,11.3-1.5
			c2.9-1.6,4.4-4.1,4.7-7.3c0.1-0.8-0.2-1.1-1-1.1c-2.8,0.1-5.5,0-8.3,0c-0.9,0-1.1-0.2-1-1.1c0.1-1.4,0.1-2.8,0-4.2
			c0-0.8,0.2-1,1-1C329,46.2,331.6,46.1,334.2,46.1z"/>
		<path class="st1" d="M352.8,46.8c0-6.8,0-13.6,0-20.4c0-1,0.3-1.2,1.2-1.2c1.6,0.1,3.3,0.1,4.9,0c0.9,0,1.1,0.2,1.1,1.1
			c-0.1,4.5,0,9-0.1,13.6c0,1,0.3,1.2,1.3,1.2c6.2,0,12.3,0,18.5,0c0.9,0,1.2-0.2,1.2-1.2c-0.1-4.5,0-9-0.1-13.6
			c0-1,0.3-1.2,1.2-1.2c1.7,0.1,3.4,0,5.2,0c0.7,0,0.9,0.2,0.9,0.9c0,13.8,0,27.7,0,41.5c0,0.7-0.2,0.9-0.9,0.9
			c-1.7,0-3.4-0.1-5.2,0c-0.9,0-1.2-0.2-1.2-1.2c0-6.2,0-12.4,0-18.6c0-1-0.3-1.2-1.2-1.2c-6.2,0-12.3,0-18.5,0
			c-1,0-1.3,0.2-1.3,1.2c0.1,6.2,0,12.3,0.1,18.5c0,1-0.3,1.3-1.3,1.2c-1.6-0.1-3.2-0.1-4.8,0c-0.9,0-1.2-0.2-1.2-1.2
			C352.8,60.5,352.8,53.6,352.8,46.8z"/>
		<path class="st1" d="M257,69.2c-2.4,0.2-4.8-0.2-7-1.2c-3.5-1.6-5.5-4.3-6.6-7.9c-0.1-0.5,0-0.8,0.5-1c1.5-0.6,3-1.3,4.5-2
			c0.5-0.2,0.8-0.1,0.9,0.4c0.9,2.7,2.8,4.3,5.5,4.8c3.2,0.6,6.2,0.4,8.1-2.4c2-3,1-5.8-1.5-7.7c-2.1-1.7-4.6-2.6-7-3.8
			c-2.7-1.4-5.3-2.9-7.4-5.1c-1.5-1.7-2.3-3.6-2.4-5.9c-0.1-2.6,0.1-5.1,1.6-7.4c1.7-2.7,4.2-4.4,7.2-5.1c3.2-0.7,6.6-0.7,9.8,0.4
			c2.7,0.9,4.8,2.5,6.2,4.9c0.7,1.3,0.7,1.5-0.7,2.2c-1.3,0.6-2.6,1.2-3.8,1.9c-0.5,0.3-0.8,0.2-1.1-0.3c-1-1.5-2.3-2.7-4-3.1
			c-3.4-0.6-6.9-0.1-7.8,4.2c-0.3,1.4,0.8,3.7,2.3,4.8c2.8,2.2,6.1,3.4,9.2,5c2.6,1.4,5,3,6.5,5.5c1.8,3,1.5,6.4,0.8,9.7
			c-1.3,5.9-7.3,9.1-12.3,9C258,69.2,257.5,69.2,257,69.2z"/>
		<path class="st1" d="M407.8,49.9c0-5.8,0-11.5,0-17.3c0-0.9-0.2-1.2-1.2-1.2c-3.1,0.1-6.2,0-9.4,0c-0.9,0-1.1-0.3-1-1.1
			c0.1-1.4,0.1-2.7,0-4.1c-0.1-0.9,0.2-1.1,1.1-1.1c6.1,0,12.2,0,18.2,0c3.2,0,6.4,0,9.6,0c0.8,0,1.1,0.1,1.1,1
			c-0.1,1.4-0.1,2.9,0,4.3c0,0.8-0.2,0.9-0.9,0.9c-3,0-6.1,0-9.1,0c-1,0-1.3,0.2-1.3,1.2c0,11.4,0,22.8,0.1,34.2
			c0,1.1-0.3,1.4-1.4,1.3c-1.6-0.1-3.2,0.3-4.9,0.3c-0.8,0-1-0.2-1-1C407.8,61.6,407.8,55.8,407.8,49.9z"/>
		<path class="st1" d="M289,46.8c0,6.8,0,13.7,0,20.5c0,0.9-0.3,1.1-1.1,1.1c-1.6-0.1-3.3-0.1-4.9,0c-0.9,0-1.2-0.2-1.2-1.2
			c0-6.7,0-13.4,0-20c0-7,0-13.9,0-20.9c0-1,0.3-1.2,1.2-1.2c1.6,0.1,3.2,0.1,4.8,0c1-0.1,1.3,0.2,1.3,1.2
			C288.9,33.2,289,40,289,46.8z"/>
		<line class="st2" x1="151.3" y1="96.7" x2="151.7" y2="95.3"/>
	</g>
</g>
</svg>
