<?xml version="1.0" encoding="utf-8"?>
<!-- Generator: Adobe Illustrator 21.1.0, SVG Export Plug-In . SVG Version: 6.00 Build 0)  -->
<svg version="1.1" id="Layer_1" xmlns="http://www.w3.org/2000/svg" xmlns:xlink="http://www.w3.org/1999/xlink" x="0px" y="0px"
	 viewBox="0 0 140 54.5" style="enable-background:new 0 0 140 54.5;" xml:space="preserve">
<style type="text/css">
	.st0{fill:#010101;}
	.st1{fill:#020202;}
	.st2{fill:#040404;}
	.st3{fill:#F4BC32;}
	.st4{fill:#070707;}
	.st5{fill:#030303;}
	.st6{fill:#F4BB31;}
	.st7{fill:#0A0B0B;}
	.st8{fill:#F4BD35;}
</style>
<g>
	<g>
		<path d="M44.6,35c-1.4,0-2.7,0-4.2,0c-0.6,0-0.7-0.4-0.9-0.7c-1.4-2.3-2.6-4.6-4-7c-0.3-0.5-0.6-0.8-1.3-0.7
			c-1.1,0.1-2.4-0.4-3,0.2c-0.5,0.5-0.2,1.9-0.2,3c0,1.6,0,3.1,0,4.6c0,0.6-0.2,0.8-0.8,0.8c-1.2-0.1-2.5,0.4-3.3-0.2
			c-0.7-0.6-0.2-2.1-0.2-3.3c0-2.8,0-5.7,0-8.5c0-0.7,0.2-0.8,0.8-0.8c2.7,0,5.5,0,8.3,0c2.7,0,4.6-1.8,4.6-4.2s-2-4.2-4.6-4.2
			c-2.7,0-5.4,0-8.1,0c-0.9,0-1.3-0.3-1.2-1.2c0.1-0.8,0-1.7,0-2.4c0-0.4,0.1-0.6,0.5-0.6c3.6,0.1,7.1-0.3,10.6,0.2
			c3.5,0.4,6.2,3.3,6.7,6.9c0.6,3.7-0.9,7.2-4.1,8.8c-0.9,0.5-0.8,0.8-0.4,1.6c1.5,2.5,3,5.1,4.4,7.6C44.6,34.7,44.7,34.8,44.6,35z"
			/>
		<path d="M102.5,9.4c2.6,0,5.2-0.1,7.7,0.9c5.4,2.3,8.8,8.3,7.7,13.9c-1.3,6.4-6.3,10.8-12.5,10.8c-2.2,0-4.4,0-6.6,0
			c-0.7,0-0.9-0.2-0.9-0.9c0.1-0.8,0.1-1.7,0-2.5c0-0.6,0.2-0.7,0.7-0.7c2.2,0,4.5,0,6.7,0c4.7,0,8.5-3.8,8.5-8.5s-3.7-8.5-8.4-8.6
			c-2.2,0-4.5,0-6.7,0c-0.6,0-0.8-0.2-0.8-0.8c0.1-0.8,0.1-1.7,0-2.5c-0.1-0.7,0.2-0.8,0.8-0.8C100,9.4,101.2,9.4,102.5,9.4z"/>
		<path d="M49.1,22.1c-0.2-2.6,0.1-5.4,1.8-7.8c1.9-2.7,4.4-4.2,7.7-4.7c0.5-0.1,0.8,0,0.7,0.6c0,0.2,0,0.4,0,0.6
			c0.2,1.8,0,3-2.2,3.7c-2.4,0.7-3.6,3-3.7,5.6c0,1.5,0,3,0,4.3c0,3.1,2,5.5,5,6.2c0.7,0.2,1.1,0.4,0.9,1.3c-0.1,0.8,0,1.7,0,2.5
			c0,0.5-0.1,0.6-0.6,0.6c-4.9-0.3-9.3-4.9-9.5-9.8C49.1,24.2,49.1,23.2,49.1,22.1z"/>
		<path d="M71.6,22.6c0.1,2.4-0.1,5-1.6,7.4c-1.6,2.5-3.9,4.2-6.9,4.9C62.4,35,61.8,35,62,34c0-0.2,0-0.4,0-0.5
			c-0.2-1.7,0-2.7,2-3.5c2.2-0.8,3.3-3,3.4-5.4c0-1.9,0.2-3.8-0.1-5.7c-0.5-2.4-2-4-4.4-4.7c-0.6-0.2-0.8-0.4-0.7-1.1
			c0.1-0.8,0.1-1.7,0-2.4c-0.1-0.9,0.3-0.9,1.1-0.8c4.6,0.8,8.4,5.2,8.5,10.1C71.6,20.7,71.6,21.5,71.6,22.6z"/>
		<path d="M91.4,27.2c-2.8,0-5.7,0-8.4,0c-0.7,0-1.2,0.2-1.4,0.9c-0.8,2-1.7,3.9-2.4,5.9c-0.3,0.8-0.7,1.1-1.7,0.7
			c3-7.1,5.9-14.1,8.9-21.4c0.6,0.9,0.8,1.8,0.3,2.8c-1.3,2.8-2.4,5.7-3.7,8.4c-0.3,0.6-0.2,0.8,0.5,0.8c2,0,4,0,5.9,0
			C90.9,25.5,90.9,25.5,91.4,27.2z"/>
		<path class="st0" d="M74.3,34.7c3.5-8.4,7.1-16.9,10.5-25.3c0.8,1.2,0.7,2.1,0.2,3.4c-3.1,7-6.1,14-9.1,21.1
			C75.6,34.7,75.2,35.1,74.3,34.7z"/>
		<path class="st1" d="M84.5,45.9c0,1.1,0,2.2,0,3.3c0,0.4-0.1,0.6-0.6,0.6s-0.6-0.2-0.6-0.6c0-0.1,0-0.2,0-0.3c0-2.6,0-2.6-2.5-2.6
			c-0.8,0-1.7,0.1-2.5,0c-0.7-0.1-0.9,0.2-0.8,0.9c0.1,0.6,0,1.4,0,2c0,0.5-0.1,0.6-0.6,0.6c-0.4,0-0.6-0.1-0.6-0.6
			c0-2.1,0-4.2,0-6.4c0-0.5,0.1-0.6,0.6-0.6c0.4,0,0.7,0.1,0.6,0.6c0,0.1,0,0.1,0,0.2c0,2.2,0,2.2,2.3,2.2c0.9,0,1.9,0,3,0
			c0.5,0,0.8-0.1,0.7-0.7c0-0.5,0-1.2,0-1.7c0-0.4,0-0.6,0.6-0.6s0.6,0.2,0.6,0.7C84.5,43.9,84.5,44.9,84.5,45.9z"/>
		<path class="st2" d="M67.9,49.8c-0.8,0-1.7,0-2.4,0c-1.3,0-1.7-0.4-1.7-1.7c0-0.6,0-1.3,0-1.9c0-0.4,0-0.7,0.5-0.6
			c0.5,0,0.6,0.1,0.6,0.7c0,0.8-0.4,1.9,0.1,2.3s1.6,0.1,2.4,0.2c0.9,0,1.9,0,2.8,0c0.8,0.1,0.7-0.5,0.6-0.9
			c-0.1-0.4,0.5-1.3-0.6-1.4c-0.6,0-1.2,0-1.8,0c-0.3,0-0.6,0-0.6-0.5c0-0.4,0.2-0.4,0.5-0.4c1.1,0,2.1,0,3.2,0
			c0.4,0,0.6,0.1,0.6,0.5c0,0.1,0,0.1,0,0.2c0.1,3.5,0.1,3.5-3.4,3.5C68.5,49.8,68.2,49.8,67.9,49.8z"/>
		<path class="st3" d="M42.8,44.6L42.8,44.6c0.1,0.1,0.2,0.1,0.2,0.2c0.2-0.7-0.1-1.4-0.6-1.8c-0.6-0.5-1.3-0.5-2-0.1
			c-0.4,0.2-0.6,0.6-0.9,1.1c-0.2,0.2,0,1.1-0.7,0.6c-0.5-0.3-1.2-0.6-0.6-1.5c0.7-1.3,1.8-2.1,3.4-2c1.4,0.1,2.4,0.7,3,2.1
			c0.5,1.4,0.1,2.6-0.8,3.7c-0.6,0.7-1.2,0.4-1.7,0c-0.7-0.6,0.3-0.6,0.4-0.9c0-0.1,0.1-0.3,0.2-0.4C42.4,45.1,42.3,44.7,42.8,44.6z
			"/>
		<path d="M90.8,42.2c1.2,0,2.2,0,3.4,0c0.3,0,0.7-0.2,0.7,0.5c0,0.6-0.5,0.4-0.8,0.4c-0.6,0-1.4,0-2,0s-0.7,0.2-0.7,0.7
			c0,1.7,0,3.5,0,5.2c0,0.4,0.1,0.8-0.6,0.8c-0.6,0-0.6-0.3-0.6-0.8c0-1.6-0.1-3.3,0-4.9c0.1-0.9-0.3-1.3-1.2-1.2
			c-0.6,0.1-1.2,0-1.8,0c-0.3,0-0.5,0-0.5-0.4s0.2-0.4,0.5-0.4C88.5,42.2,89.6,42.2,90.8,42.2z"/>
		<path class="st4" d="M50.4,48.7c0.6,0,1.4-0.1,2,0c1.1,0.1,1.4-0.1,1.4-1.3c-0.1-0.8-0.2-1.3-1.1-1.1c-0.2,0-0.5,0-0.7,0
			s-0.3-0.2-0.3-0.3c0-0.2-0.1-0.5,0.1-0.6c0.8-0.1,1.6-0.2,2.4,0.1c0.5,0.2,0.6,0.7,0.6,1.3c0.2,2.7-0.1,3-2.7,3
			c-1.1,0-2.1,0-3.2,0c-0.3,0-0.6,0-0.8-0.1c-0.4-0.1-1.1-0.2-0.9-0.7c0.1-0.5,0.6-0.2,1.1-0.2C48.8,48.7,49.7,48.7,50.4,48.7z"/>
		<path class="st5" d="M54.7,43.1c-1.9,0-3.7,0.1-5.6,0c-1.1-0.1-0.8,0.6-0.8,1.2c0,0.6-0.1,1.2,0.8,1.2c0.4,0,1.4-0.5,1.4,0.5
			c0,0.9-0.9,0.4-1.4,0.4c-0.7,0.1-1.5,0-1.8-0.8c-0.2-1.1-0.4-2.1,0.3-3.1c0.2-0.3,0.6-0.3,1.1-0.3c1.6,0,3.2,0,4.7,0
			C54,42.2,54.4,42.4,54.7,43.1z"/>
		<path class="st5" d="M68,42.2c0.9,0,1.9,0,3,0c0.8,0,1.3,0.5,1.4,1.4c0.1,0.4-0.2,0.6-0.5,0.6c-0.3,0-0.7,0.1-0.7-0.4
			c0.1-0.6-0.3-0.6-0.7-0.6c-1.5,0-3.1,0-4.5,0c-0.4,0-0.7,0-0.7,0.5c0.1,0.6-0.4,0.5-0.7,0.5c-0.5,0-0.5-0.3-0.4-0.6
			c0.1-0.8,0.4-1.4,1.3-1.4C66,42.2,67.1,42.2,68,42.2z"/>
		<path class="st6" d="M37.9,44.5c0.8,0.3,1.2,0.8,1.1,1.7c-0.1,1.6-0.1,1.7,1.5,1.1c0.5-0.2,1.1-0.3,1.6,0.1c0.3,0.2,0.4,0.3,0,0.6
			c-1.4,1.1-2.6,1.1-4,0.1c-0.8-0.5-0.4-1.2-0.4-1.8C37.4,45.7,37.5,45,37.9,44.5z"/>
		<path class="st0" d="M58.7,46c0-1.1,0-2.1,0-3.2c0-0.5,0.1-0.7,0.6-0.7c0.5,0,0.6,0.2,0.6,0.6c0,2.1,0,4.2,0,6.3
			c0,0.4,0,0.7-0.5,0.7c-0.5,0-0.7-0.1-0.7-0.7C58.7,48.1,58.7,47,58.7,46z"/>
		<path class="st7" d="M42.8,44.6c-0.1,0.3-0.2,0.6-0.3,0.9c-0.6,0.5-1.4,0.5-1.8-0.2c-0.4-0.7,0-1.4,0.9-1.7
			C41.1,45,42.2,44.5,42.8,44.6z"/>
		<path class="st8" d="M38.8,49.4c-1.6,0.6-1.6,0.6-1.5-0.9C38.2,48.6,38.2,48.6,38.8,49.4z"/>
	</g>
</g>
</svg>
