<?xml version="1.0" encoding="utf-8"?>
<!-- Generator: Adobe Illustrator 21.1.0, SVG Export Plug-In . SVG Version: 6.00 Build 0)  -->
<svg version="1.1" id="Layer_1" xmlns="http://www.w3.org/2000/svg" xmlns:xlink="http://www.w3.org/1999/xlink" x="0px" y="0px"
	 viewBox="0 0 484.3 90.3" style="enable-background:new 0 0 484.3 90.3;" xml:space="preserve">
<style type="text/css">
	.st0{fill:#F6AF06;}
	.st1{fill:#C3931E;}
	.st2{fill:#BF932A;}
	.st3{fill:#BF9124;}
	.st4{fill:#BF9122;}
	.st5{fill:#BD912A;}
	.st6{fill:#BE9227;}
	.st7{fill:#BD932E;}
	.st8{fill:#BF9123;}
	.st9{fill:#C09326;}
	.st10{fill:#BD9129;}
	.st11{fill:#BE922A;}
	.st12{fill:#BE9124;}
	.st13{fill:#CF9711;}
	.st14{fill:#CD9F32;}
	.st15{fill:#C2921F;}
	.st16{fill:#BB9331;}
	.st17{fill:#D19810;}
	.st18{fill:#CE9611;}
	.st19{fill:#C1911E;}
	.st20{fill:#CB9514;}
	.st21{fill:#BD932C;}
	.st22{fill:#C2921E;}
	.st23{fill:#FEFEFE;}
	.st24{fill:#C09123;}
	.st25{fill:#D69D15;}
	.st26{fill:#D2980D;}
	.st27{fill:#C5921A;}
	.st28{fill:#D3980D;}
	.st29{fill:#D2980F;}
	.st30{fill:#CF9611;}
	.st31{fill:#D1980E;}
	.st32{fill:#BC9330;}
	.st33{fill:#D69A0B;}
	.st34{fill:#BB9333;}
	.st35{fill:#CB9513;}
	.st36{fill:#CA9514;}
	.st37{fill:#D9A119;}
	.st38{fill:#CD9613;}
	.st39{fill:#CB9F36;}
	.st40{fill:#C99416;}
	.st41{fill:#C59219;}
	.st42{fill:#D39C18;}
	.st43{fill:#C4921C;}
	.st44{fill:#CD9612;}
	.st45{fill:#BD922A;}
	.st46{fill:#C99F3C;}
	.st47{fill:#BC9432;}
	.st48{fill:#CF9610;}
	.st49{fill:#BB9335;}
	.st50{fill:#D89C0B;}
	.st51{fill:#C4931C;}
	.st52{fill:#C8A652;}
	.st53{fill:#D3990F;}
	.st54{fill:#BA9435;}
	.st55{fill:#DC9E09;}
	.st56{fill:#D59A0C;}
	.st57{fill:#BF9125;}
	.st58{fill:#C19221;}
	.st59{fill:#D4990D;}
	.st60{fill:#C09224;}
	.st61{fill:#BF9226;}
	.st62{fill:#CD9611;}
	.st63{fill:#BE942D;}
	.st64{fill:#D99C0A;}
	.st65{fill:#C6931A;}
	.st66{fill:#C9A755;}
	.st67{fill:#BD922D;}
	.st68{fill:#CB9D31;}
	.st69{fill:#CAA857;}
</style>
<g>
	<g>
		<path class="st0" d="M242.9,68.6c1.2-0.8,2.6-1.2,3.8-2.1c2.7-2,4.6-4.5,5.9-7.4c1.2-1.7,1.5-3.6,1.5-5.6
			c0.4-6.5-0.1-13.1,0.1-19.6c0.1-3.8-1-7.3-3.2-10.3c-1.6-2.2-3.5-4.3-6.1-5.4c-0.6-0.2-1-0.6-1.4-1.1c-0.2-0.4-0.8-0.6-0.5-1.2
			c0.2-0.5,0.7-0.2,1-0.3c0.9,0,1.8,0,2.7,0c0.4,0,0.8,0,1.2,0c0.9,0.2,1.7,0.2,2.6,0c0.7,0,1.4,0,2,0c0.9,0.2,1.8,0.1,2.7,0.1
			c1-0.2,1.9-0.1,2.9-0.1c2.1,0.1,4.2,0.1,6.3,0c4.3,0,8.7,0,13,0c1.1,0,2.3,0,3.4,0c1.8,0,3.7,0,5.5,0c2,0,3.9,0,5.9,0
			c0.8,0,1.6,0,2.4,0c1.4,0.2,2.8,0.2,4.3,0c1.1,0,2.2,0,3.3,0c0.9,0,1.9-0.3,2.8,0c2.1,0.2,4.1-0.2,6.2,0c0.4,0,0.9,0,1.3,0
			c1.3,0.2,2.7,0.1,4,0.1c1.1-0.2,2.2-0.2,3.3-0.1c1.5,0.1,2.9,0,4.4,0c0.6,0,1.3,0,1.9,0c0.7,0,1.4,0,2.1,0c1.1,0.2,2.1,0.1,3.2,0
			c0.2-0.1,0.4-0.1,0.6,0c1.1,0.1,2.3,0.1,3.4,0c0.8,0,1.6,0,2.3,0c1.3,0,2.5,0,3.8,0c5.2,0,10.4,0.1,15.7,0c8.3,0,16.5,0,24.8,0
			c0.7,0,1.5,0,2.2,0c0.3,0,0.7,0,1,0c1,0.2,2,0.2,3,0c0.7,0,1.4,0,2,0c0.9,0.2,1.9,0.1,2.8,0.1c0.5-0.1,1.1-0.1,1.6-0.1
			c0.7,0,1.4-0.3,2.1,0c0.4,0,0.7,0,1.1,0.1c2.4,0.1,4.8,0,7.2,0.1c1.3-0.2,2.7-0.1,4-0.1c0.1,0,0.3,0,0.4,0c0.6,0.2,1.3,0.1,1.9,0
			c1.9-0.2,3.8,0,5.7,0c9.8-0.1,19.6-0.1,29.5,0c3.4,0,6.8-0.4,10.1,0c1.3,0.2,2.7-0.1,4.1-0.1c0.6,0,1,0.1,1.3,0.6l0,0
			c0.5,1,0.4,2,0.3,3c-0.1,3.4,0,6.8-0.1,10.1c0,1.1-0.1,2.2,0.1,3.2c0,1.6,0.1,3.2-0.2,4.9c-0.1,0.6,0,1.2,0.1,1.8
			c0,8.8,0,17.5,0,26.3c0,0.5,0,1,0.1,1.5c0.1,0.7,0.2,1.3,0,2l0,0c-0.3,0.4-0.6,0.6-1.1,0.7c-69.3,0.4-138.5,0.1-207.8,0.1
			c-3.1,0-6.2,0-9.3,0.1C242.8,69.9,242.7,69.8,242.9,68.6z"/>
		<path d="M183.9,36.7c-0.4-9.8-7.7-17.6-17.5-18.7c-5.1-0.6-10.2-0.3-15.3-0.1c-3.5,0.1-5.9,3.1-5.9,6.6c0,5.8,0,11.7,0,17.5
			c0,5.8,0,11.6,0,17.4c0,4.1,2.7,6.9,6.9,6.9c3.9,0,7.8,0,11.6,0c1.9,0,3.7-0.3,5.4-0.7c8.4-2.3,14.3-9.4,14.7-18.1
			C184.1,43.8,184.1,40.3,183.9,36.7z M170.7,46.8c-0.1,4.4-3.3,7.6-7.7,7.7c-1.2,0-2.4-0.1-3.6,0c-0.9,0.1-1-0.3-0.9-1
			c0-3.8,0-7.7,0-11.5c0-3.8,0-7.6,0-11.4c0-0.8,0.1-1.1,1-1.1c1.2,0.1,2.3,0,3.5,0c4.3,0.1,7.7,3.4,7.8,7.7
			C170.8,40.4,170.8,43.6,170.7,46.8z"/>
		<path d="M227.8,57.6c-4.6-11.7-9.1-23.5-13.7-35.2c-1.1-2.8-3.7-4.6-6.5-4.6c-2.9,0-5.5,1.8-6.6,4.5c-4.6,11.8-9.2,23.7-13.8,35.5
			c-0.4,1-0.5,2-0.4,3.1c0.4,2.8,2.5,4.9,5.3,5.3c2.9,0.4,6-1.2,7.1-3.8c0.7-1.7,1.3-3.5,1.9-5.3c0.2-0.8,0.6-0.9,1.4-0.9
			c1.7,0.1,3.4,0,5,0c1.8,0,3.5,0,5.3,0c0.7,0,1,0.2,1.2,0.9c0.6,1.8,1.3,3.7,2.1,5.5c1.4,3.1,5.4,4.6,8.6,3.3
			C227.7,64.4,229.1,61,227.8,57.6z M205.2,45.6c0.8-2.5,1.5-5,2.3-7.8c0.8,2.7,1.6,5.2,2.3,7.8C208.3,45.6,206.8,45.6,205.2,45.6z"
			/>
		<path d="M127.4,55.9c-0.1-1.2,0.2-2.7-0.2-4.2c-0.3-1-0.8-1.9-1.5-2.7c-1.6-1.6-3.7-1.7-5.3,0c-1.2,1.2-1.7,2.8-1.8,4.5
			c0,1-0.1,1.9,0,2.9c0.4,2.3-0.5,3.5-2.6,4.5c-2.6,1.2-5.1,2.7-7.6,4c-0.6,0.3-0.9,0.9-1.6,1.2c-2.5,0.9-4.5-0.1-6.1-1.7
			c-1.9-1.8-2.2-4.2-1.3-6.6c3.7-9.5,7.4-19,11.1-28.5c0.9-2.2,1.7-4.5,2.6-6.7c1.1-2.9,3.7-4.7,6.6-4.7c2.9,0,5.5,1.8,6.6,4.7
			c4.6,11.7,9.1,23.5,13.7,35.2c0.9,2.4,0.6,4.7-1.1,6.6c-1.7,1.9-3.9,2.4-6.4,1.8c-0.7-0.2-1.2-0.6-1.6-1.1c-1-1.4-2.1-2.9-3.1-4.3
			c-0.3-0.4-0.4-0.8-0.4-1.3C127.4,58.3,127.4,57.2,127.4,55.9z"/>
		<path d="M35.3,66.3c-4.6-0.2-9.2-1.6-12.8-5.4c-2.2-2.3-3.3-5.1-3-8.3c0.3-2.5,1.8-4.4,4-5c2.7-0.7,5.4,0.1,6.9,2.1
			c0.4,0.6,0.8,1.3,1.1,2c1.2,2.7,3.7,3.9,6.5,3c1.6-0.5,2.7-1.4,2.9-3.1c0.2-1.6-0.6-3.2-2.1-4c-1.3-0.7-2.8-1-4.2-1.5
			c-2-0.7-4.1-1.4-6-2.4c-5.6-3.1-8.2-8.1-7.4-14.1c0.7-5.3,5.1-9.9,10.9-11.3c5-1.2,9.9-0.6,14.2,2.3c2.4,1.6,4.1,3.7,4.4,6.7
			c0.4,4.6-2.7,7.4-7.2,6.5c-1.6-0.3-2.8-1.1-3.7-2.4c-0.8-1.3-2-2.1-3.6-2c-1.5,0-2.6,0.9-2.9,2.2c-0.2,1.3,0.4,2.4,1.8,3
			c1.5,0.6,3,1,4.5,1.5c2.6,0.8,5,1.8,7.2,3.4c9.5,6.7,7.1,17,1.1,22.3C44.7,64.8,40.5,66.2,35.3,66.3z"/>
		<path d="M58.5,41.5c0.1-2.4-0.2-5.3,0.4-8.2C60.8,25.3,67.8,19,76,18c4.8-0.6,9.5-0.1,13.9,2.2c2,1,3.7,2.4,5,4.2
			c1.8,2.5,2,5.1,0.3,7.4c-1.6,2.2-4.7,3.2-7.5,2.2c-1.4-0.5-2.3-1.5-3.4-2.4c-4.2-3.8-11.1-2.1-12.3,3.3c-1,4.6-1,9.5,0,14.2
			c1.1,5.2,7.8,7.1,11.9,3.7c0.5-0.4,0.9-0.8,1.3-1.2c2.1-2,5.3-2.4,7.9-1.1c2.4,1.3,3.6,3.8,3.1,6.6c-0.2,1.3-1,2.3-1.9,3.3
			c-2.8,3.3-6.4,4.9-10.6,5.6c-7,1.2-13.5-0.2-18.9-5.1c-4.2-3.8-6.4-8.5-6.4-14.2C58.5,45.1,58.5,43.5,58.5,41.5z"/>
		<path class="st1" d="M242.9,68.6c-0.1,0.7,0.1,1.1,1,1.1c1.9-0.1,3.8,0.1,5.7-0.2c1.2-0.2,2.4,0.2,3.6,0.2c65.7,0,131.4,0,197.2,0
			c2.6,0,5.2-0.2,7.7,0c1.2,0.1,2.4-0.3,3.7-0.2c0.1,0,0.1,0.1,0.1,0.1c0,0-0.1,0.1-0.1,0.1c-1.2,0.3-2.4,0.2-3.5,0.2
			c-2.7,0-5.4,0-8.2,0c-65.7,0-131.4,0-197.1,0c-3.1,0-6.2,0.1-9.2,0.2C242.5,70,242.4,69.7,242.9,68.6z"/>
		<path class="st2" d="M462.3,16.1c-1-0.8-2.2-0.5-3.3-0.4c-1.2,0.1-2.3,0.1-3.4,0c-1.6-0.1-3.2-0.2-4.8,0.1
			c-1.7,0.3-3.5-0.2-5.2-0.2c-9.3,0.1-18.6-0.1-27.8,0.1c-2.1,0-4.2-0.4-6.3,0.1c-0.5-0.2-1.1,0.1-1.7-0.2c-0.1,0-0.2,0-0.2,0
			c-0.1,0-0.1-0.1-0.1-0.1c0,0,0.1-0.1,0.1-0.1c12.4,0,24.8,0,37.2,0c4.6,0,9.3-0.1,13.9-0.1C461.2,15.3,462,15.1,462.3,16.1z"/>
		<path class="st3" d="M462.2,38.9c-0.1-2.2,0.4-4.3,0.2-6.5c-0.2-1.1,0-2.1-0.1-3.2c0.1-3.4-0.1-6.8,0.1-10.2c0.1-1,0-1.9-0.2-2.9
			c0.5,0.3,0.4,0.8,0.4,1.3c-0.1,6.7,0,13.4-0.1,20.1c-0.1,9.9,0,19.9,0.1,29.8c0,0.5,0.2,1.1-0.2,1.6c0-0.6,0-1.3,0-1.9
			c-0.2-0.4-0.1-0.9-0.1-1.3c0-8.5,0-17,0-25.5C462.4,39.8,462.5,39.3,462.2,38.9z"/>
		<path class="st4" d="M382.3,15.6c-8.3,0-16.6,0-25,0c-0.1,0-0.1-0.1-0.1-0.1c0,0,0.1-0.1,0.1-0.1c7.2,0,14.3,0,21.5,0
			c1.2,0,2.3,0,3.5,0C382.4,15.4,382.4,15.5,382.3,15.6C382.4,15.6,382.3,15.6,382.3,15.6z"/>
		<path class="st5" d="M357.4,15.4c0,0.1,0,0.1,0,0.2c-5.2,0.3-10.4,0.1-15.6,0c-0.1,0-0.1-0.1-0.1-0.1c0,0,0-0.1,0.1-0.1
			C347,15.4,352.2,15.4,357.4,15.4z"/>
		<path class="st6" d="M252.7,15.6c-0.7,0-1.4,0-2.1,0c-0.8,0.2-1.6,0.2-2.4,0c-0.4,0-0.8,0-1.2,0c-0.1,0-0.1-0.1-0.1-0.1
			c0,0,0-0.1,0.1-0.1c5.8,0,11.7,0,17.5,0c0.1,0,0.1,0.1,0.1,0.1c0,0-0.1,0.1-0.1,0.1c-2.5,0.4-5.1,0-7.6,0c-0.5,0-1,0-1.5,0.2
			C254.5,15.6,253.6,15.9,252.7,15.6z"/>
		<path class="st7" d="M324.5,15.6c-2,0.5-4,0-6,0c-0.6,0-1.1-0.1-1.6,0.2c-1.4-0.3-2.7,0.1-4.1-0.2c-0.4,0-0.8,0-1.2,0
			c-0.1,0-0.1-0.1-0.1-0.1c0-0.1,0-0.1,0.1-0.1c4.3,0,8.6,0,13,0C324.6,15.4,324.6,15.5,324.5,15.6
			C324.5,15.6,324.5,15.6,324.5,15.6z"/>
		<path class="st8" d="M264.5,15.6c0-0.1,0-0.1,0-0.2c4.4,0,8.8,0,13.2,0c0.1,0,0.1,0.1,0.1,0.1c0,0-0.1,0.1-0.1,0.1
			C273.3,15.6,268.9,15.6,264.5,15.6z"/>
		<path class="st9" d="M409.4,15.4c0,0.1,0,0.1,0,0.2c-1.4,0.1-2.7-0.2-4.1,0.2c-2-0.2-4,0-6-0.1c-0.5,0-0.9,0.1-1.4-0.1
			c-0.3,0-0.6,0-0.9,0c-0.1,0-0.1-0.1-0.1-0.1c0-0.1,0.1-0.1,0.1-0.1C401.1,15.4,405.3,15.4,409.4,15.4z"/>
		<path class="st10" d="M332.1,15.6c-0.1,0-0.3,0-0.4,0c-1.1,0.2-2.1,0.2-3.2,0c-0.7,0-1.4,0-2.1,0c-0.1,0-0.1-0.1-0.1-0.1
			c0,0,0.1-0.1,0.1-0.1c3.8,0,7.7,0,11.5,0c0.1,0.1,0.1,0.1,0.1,0.1c0,0-0.1,0.1-0.1,0.1c-0.8,0-1.6,0-2.4,0
			C334.4,15.8,333.3,15.8,332.1,15.6z"/>
		<path class="st11" d="M394.8,15.6c-0.5,0-1,0-1.5,0.2c-0.9-0.2-1.9,0.1-2.9-0.2c-0.7,0-1.4,0-2.1,0c-1,0.2-1.9,0.2-2.9,0
			c-0.3,0-0.6,0-0.9,0c-0.1,0-0.1-0.1-0.1-0.1c0,0,0.1-0.1,0.1-0.1c3.4,0,6.9,0,10.3,0C394.9,15.4,394.9,15.5,394.8,15.6
			C394.8,15.6,394.8,15.6,394.8,15.6z"/>
		<path class="st12" d="M302.4,15.6c-1.1,0-2.2,0-3.3,0c-1.4,0.2-2.7,0.2-4.1,0c-0.8,0-1.6,0-2.4,0c-0.1,0-0.1-0.1-0.1-0.1
			c0,0,0.1-0.1,0.1-0.1c3.3,0,6.6,0,9.8,0C302.5,15.4,302.5,15.5,302.4,15.6C302.4,15.6,302.4,15.6,302.4,15.6z"/>
		<path class="st13" d="M311.5,15.4c0,0.1,0,0.1,0,0.2c-2.1-0.1-4.2,0.2-6.2,0c-0.1-0.1-0.1-0.1-0.1-0.2c0-0.1,0.1-0.1,0.1-0.1
			C307.4,15.6,309.4,15,311.5,15.4z"/>
		<path class="st14" d="M254.1,53.4c0.2,2.1,0,4-1.5,5.6C253.6,57.3,253.9,55.4,254.1,53.4z"/>
		<path class="st15" d="M292.6,15.4c0,0.1,0,0.1,0,0.2c-2,0-4,0-6,0c-0.1,0-0.1-0.1-0.1-0.1c0,0,0.1-0.1,0.1-0.1
			C288.6,15.4,290.6,15.4,292.6,15.4z"/>
		<path class="st16" d="M286.6,15.4c0,0.1,0,0.1,0,0.2c-1.8,0-3.7,0-5.5,0c-0.1,0-0.1-0.1-0.1-0.1c0,0,0.1-0.1,0.1-0.1
			C282.9,15.4,284.7,15.4,286.6,15.4z"/>
		<path class="st17" d="M305.3,15.4c0,0.1,0,0.2,0,0.2c-1,0-1.9,0-2.9,0c0-0.1,0-0.1,0-0.2C303.4,15.2,304.3,15,305.3,15.4z"/>
		<path class="st18" d="M337.9,15.6c0-0.1,0-0.1,0-0.2c1.3-0.1,2.6-0.2,3.8,0c0,0.1,0,0.1,0,0.2C340.5,15.6,339.2,15.6,337.9,15.6z"
			/>
		<path class="st13" d="M394.8,15.6c0-0.1,0-0.1,0-0.2c0.7-0.1,1.4-0.3,2.1,0c0,0.1,0,0.1,0,0.2C396.2,15.6,395.5,15.6,394.8,15.6z"
			/>
		<path class="st19" d="M281,15.4c0,0.1,0,0.1,0,0.2c-1.1,0-2.2,0-3.4,0c0-0.1,0-0.1,0-0.2C278.8,15.4,279.9,15.4,281,15.4z"/>
		<path class="st20" d="M247,15.4c0,0.1,0,0.1,0,0.2c-1,0-1.9,0-2.9,0c-0.1-0.1-0.1-0.1-0.1-0.1c0,0,0.1-0.1,0.1-0.1
			C245,15.4,246,15.4,247,15.4z"/>
		<path class="st21" d="M244.1,15.4c0,0.1,0,0.1,0,0.2c-1.5-0.1-0.7,0.8-0.5,1.3c-0.6-0.2-0.8-0.6-0.7-1.2
			C243.1,15.1,243.7,15.4,244.1,15.4z"/>
		<path class="st22" d="M384.5,15.4c0,0.1,0,0.1,0,0.2c-0.7,0-1.4,0-2.2,0c0-0.1,0-0.1,0-0.2C383,15.4,383.8,15.4,384.5,15.4z"/>
		<path class="st3" d="M326.4,15.4c0,0.1,0,0.1,0,0.2c-0.6,0-1.3,0-1.9,0c0-0.1,0-0.1,0-0.2C325.1,15.4,325.8,15.4,326.4,15.4z"/>
		<path class="st3" d="M461.8,69.6c0-0.1,0-0.1,0-0.2c0.2-0.2,0.5-0.3,0.7-0.5C462.5,69.3,462.2,69.6,461.8,69.6z"/>
		<path class="st23" d="M352.7,54.5c1-0.6,1.9-1.3,2.5-2.4c0.7-1.3,0-2.4-1.5-2.5c-1.1-0.1-2.2,0.3-3.3,0.1c-1.1-0.2-1.7-0.8-2-1.9
			c-0.3-1.7-0.4-3.5-0.4-5.2c0.1-1.8,1-2.9,2.7-3c2.4-0.1,4.8-0.1,7.2-0.1c2.1,0,4.1,0.1,6.2,0.1c2.3,0,3.4,1.3,3.3,3.6
			c-0.1,2.6,0.1,5.2,0,7.8c-0.2,3.6-1.5,6.8-4.2,9.3c-1.3,1.2-2.6,2.4-4.3,3c-2.4,1.5-5.1,2.1-7.9,2.4c-1,0.1-1.9,0.3-2.9,0.2
			c-0.5,0-1.1,0-1.6,0c-1.3-0.5-2.6-0.7-3.9-0.9c-1.9-1.2-4.1-1.8-6-3.2c-2.3-1.8-4.3-3.9-5-6.8c-0.8-1.2-0.9-2.5-0.9-3.8
			c-0.1-1.8,0-3.6,0-5.5c0-3.3-0.1-6.5,0-9.8c0.1-2.8,0.6-5.5,2.1-8c0.4-0.7,0.9-1.4,1.5-2c1.5-1.5,2.9-3.3,5.1-4
			c1.8-0.6,3.6-1.3,5.4-1.9c0.8-0.3,1.7-0.3,2.5-0.4c1.4,0,2.9,0,4.3,0c0.5,0.2,1.1,0.2,1.6,0.3c2.7,0.5,5.3,1.5,7.5,3.1
			c1.1,0.8,2.4,1.3,3.3,2.3c2.1,2.3,3.2,5,3.3,8.1c0.1,1.5-0.7,2.3-2.1,2.6c-2.1,0.3-4.3,0-6.4,0.2c-1.4,0.1-2.4-0.8-2.7-2.1
			c-1-3.7-8-5.6-11.2-2.6c-0.5,0.5-0.9,0.9-1.1,1.5c-1.2,2.2-0.9,4.5-0.7,6.8l0,0c-0.2,3.3-0.5,6.7,0.1,10c0,0.9,0,1.8,0.4,2.6
			c0.5,0.9,1,1.7,2,2.1C348,55,350.4,55.1,352.7,54.5z"/>
		<path class="st23" d="M263.9,26.7c2.1-2.9,4.9-4.8,8.3-5.9c0.7-0.6,1.7-0.7,2.6-0.8c2.9-0.5,5.8-0.6,8.7,0.1
			c2.2,0.7,4.4,1.1,6.4,2.3c0.4,0.3,0.9,0.4,1.3,0.8c2.8,1.8,4.2,4.6,5.2,7.6c0.3,0.9,0.2,1.8,0.1,2.7c0,0.5-0.4,1-1,1.3
			c-1,0.5-2.1,0.9-3.3,0.7c-1.2-0.2-2.5,0-3.7,0c-0.7,0-1.4-0.1-1.9-0.7c-0.7-0.6-1.3-1.4-1.8-2.2c-1.1-1.8-2.8-2.7-4.9-2.7
			c-1.6,0-3.2-0.2-4.7,0.9c-1.4,1.2-1.6,2.6-0.1,3.8c2.1,1.7,4.7,2.5,7.2,3.2c2.9,0.8,5.7,1.7,8.5,2.7c1.1,0.4,1.9,1.4,2.9,1.8
			c2,1.5,3.1,3.5,3.7,5.8c0.7,2.6,0.7,5.1-0.4,7.7c-0.4,1-0.5,2.3-1.4,3.1c-0.4,0.5-0.8,1-1.2,1.5c-0.6,1-1.6,1.5-2.5,2.1
			c-2.8,2.1-6.1,2.4-9.2,3.3c-1.1,0.4-2.2,0.1-3.4,0.2c-4.2-0.3-8.3-1.1-11.8-3.6c-1.1-0.7-2-1.7-2.8-2.7c-1.3-2-2.4-4-3-6.3
			c-0.7-2.5,0.5-4.4,3.1-4.6c1.8-0.1,3.6-0.1,5.4,0c1.5,0,2.5,0.9,3.1,2.3c0.4,0.8,0.7,1.7,1.4,2.3c0.9,1,2,1.5,3.3,1.5
			c1.9,0,3.9,0.4,5.8-0.3c1.4-0.4,2-1.4,2.1-2.7c0.1-1.2-0.8-1.7-1.7-2.2c-1.5-0.9-3.2-1.3-4.8-1.6c-4.8-1.1-9.4-2.6-13.3-5.6
			c-1.6-1.2-2.2-3-3.1-4.6c-0.1-0.2-0.2-0.4-0.3-0.5c-0.3-0.4-0.4-0.8-0.4-1.2c0-2-0.2-4,0.1-5.9C262.6,28.8,263,27.6,263.9,26.7z"
			/>
		<path class="st23" d="M428.6,64.5c-1-0.9-1.4-2.1-1.4-3.4c0-3.2,0.1-6.5,0.1-9.7c0-6.1,0.1-12.1,0.1-18.2c0-0.4,0-0.7-0.2-1
			c-0.3-0.3-0.5-0.6-0.8-0.7c-0.6-0.4-1.3-0.2-2-0.2c-1.9,0-3.7,0-5.6,0c-0.8,0-1.5-0.1-2.2-0.5c-1-0.6-1.4-1.5-1.4-2.6
			c0.1-1.7-0.2-3.4,0.2-5.1c0.5-1.8,1.8-2.4,3.5-2.4c9.4,0,18.9,0,28.3,0c1.4,0,2.6,0.3,3.3,1.7c0.2,2.4,0.8,4.7-0.1,7.1
			c-0.2,0.5-0.5,1-0.9,1.4c-0.8,0.5-1.7,0.6-2.6,0.6c-2,0-4,0-6,0c-1.5,0-2.1,0.6-2,2.1c0.5,6.2,0.1,12.5,0.2,18.7
			c-0.3,0.9-0.3,1.8-0.1,2.7c0.2,1,0.2,2,0,3c-0.2,0.8-0.1,1.6,0,2.5c0.2,1.3,0,2.6-1,3.6c-0.4,0.5-1,0.7-1.6,0.7
			c-2.1-0.1-4.1,0.2-6.2,0.3C429.8,65,429.2,64.9,428.6,64.5z"/>
		<path class="st23" d="M320.2,53.9c0.5,0.5,1.1,0.6,1.7,0.6c1.1-0.1,2.1,0.2,3,0.8c0.5,0.4,0.7,0.9,0.7,1.5c0,1.8,0,3.6,0,5.5
			c0,1.1-0.7,1.6-1.4,2.2c-1,0.3-2.1,0.5-3.2,0.3c-0.5-0.1-1-0.1-1.4,0c-3.4,0.5-6.8-0.2-10.3,0.1c-1.9,0.2-4.1,0.1-6-0.4
			c-0.7-0.4-1.1-1-1.1-1.7c-0.1-1.6-0.5-3.1-0.5-4.7c0.1-2.1,0.7-3,2.7-3.5c0.6-0.2,1.2-0.2,1.8-0.3c1.2-0.2,1.6-0.6,1.7-1.9
			c0-0.7,0-1.4,0-2c0-3.2,0-6.4,0-9.6c0-1.2,0.5-2.3,0.2-3.4c-0.2-0.9-0.2-1.8-0.2-2.7c0-0.2,0-0.5,0.1-0.7c0.4-1.7-0.3-2.6-2-2.7
			c-1.1,0-2.3-0.1-3-1.1c-0.7-0.7-0.9-1.6-0.9-2.6c0-1.2,0-2.4,0-3.7c0-0.5,0.1-1,0.4-1.4c0.1-0.1,0.1-0.2,0.2-0.3
			c0.5-1.1,1.4-1.7,2.6-1.6c2.4,0.3,4.7,0,7.1,0c3.1,0,6.1,0.2,9.2,0c1.8-0.1,3.2,0.5,4.1,2.2c0.3,2,0.1,4.1,0,6.1
			c-0.1,1.6-1.2,2.4-2.9,2.5c-2.9,0.3-3.2,0.6-2.8,3.5c0.2,1.2,0,2.4,0,3.6c0,4.6,0,9.2,0,13.8C319.8,52.7,319.9,53.3,320.2,53.9z"
			/>
		<path class="st24" d="M409.4,21.1c0.9,0.6,1.2,1.4,1.2,2.4c0,12.6,0,25.3,0,37.9c0,0.4,0.1,0.9-0.2,1.2c-0.2,0.1-0.3,0-0.4-0.1
			c0.1-1.8-0.3-3.6-0.1-5.4c0.1-0.6,0.1-1.2,0.1-1.8c0-5.8,0.1-11.6,0-17.4c-0.1-4,0.1-8,0-12c0-1.6,0.1-3.3-0.9-4.7
			C409.2,21.1,409.3,21,409.4,21.1z"/>
		<path class="st25" d="M320.2,53.9c-0.5-0.3-0.5-0.9-0.5-1.4c0-5.3,0-10.6,0-15.9c0-1,0-1.9-0.2-2.9c-0.3-1.7,0.4-2.6,2.2-2.6
			c3-0.2,3.7-0.9,3.7-4c0-1.5,0-2.9,0-4.4c-0.1-0.1-0.1-0.2,0-0.3c0.3,0.3,0.5,0.8,0.4,1.2c-0.2,1.8-0.1,3.6-0.3,5.3
			c-0.2,1.7-1.3,2.5-3.3,2.6c-2.2,0.1-2.6,0.4-2.3,2.5c0.2,1.4,0,2.8,0,4.3c-0.1,4.6,0,9.2,0,13.8C319.9,52.6,320.1,53.3,320.2,53.9
			z"/>
		<path class="st26" d="M439.2,52.3c0-5.2,0-10.5,0-15.7c0-0.9-0.1-1.8-0.2-2.7c-0.3-1.8,0.4-2.6,2.3-2.7c2,0,4.1,0,6.1,0
			c0.8,0,1.6-0.1,2.3-0.5c0.1-0.1,0.2-0.1,0.3,0c-0.7,1-1.9,0.9-2.9,0.9c-2,0.1-4.1,0-6.1,0c-1.3,0-1.9,0.6-1.7,1.8
			c0.3,1.8,0.2,3.7,0.2,5.5c0,4.2,0,8.4,0,12.6c0,0.4,0.1,0.9-0.2,1.3C439.1,52.7,439.1,52.5,439.2,52.3z"/>
		<path class="st7" d="M325.5,22.3c0,0.1,0,0.2,0,0.3c-0.9-1.5-2.2-2.1-4-2.1c-5.4,0-10.9,0.2-16.3-0.1c-1.1,0-1.8,0.7-2.5,1.4
			c0.4-1.3,1.2-1.9,2.5-1.8c2.1,0.3,4.1,0,6.2,0c2.5,0,5-0.1,7.5,0.2c1.4,0.2,2.8-0.5,4.3,0C324.1,20.8,325,21.2,325.5,22.3z"/>
		<path class="st27" d="M303.1,64.2c2.1,0.7,4.2,0.5,6.3,0.4c3.9-0.1,7.7,0.1,11.6-0.1c1.1,0,2.1,0,3.2-0.3c0.1-0.1,0.2-0.1,0.3,0
			c-0.9,0.7-2,0.7-3,0.6c-1.1-0.1-2.2-0.1-3.3,0c-1.4,0.1-2.9,0.1-4.3-0.1c-1.1-0.2-2.3,0-3.4,0.1c-2.5,0.1-4.9-0.1-7.4-0.4
			C303,64.4,303,64.3,303.1,64.2z"/>
		<path class="st28" d="M462.2,38.9c0.3,0.2,0.2,0.6,0.2,0.9c0,9.1,0,18.1,0,27.2c-0.3-0.3-0.2-0.8-0.2-1.1
			C462.2,56.8,462.2,47.9,462.2,38.9z"/>
		<path class="st29" d="M295.6,58.8c1.1-1.9,1.8-4,2-6.1c0.5-4-0.9-7.6-3.9-10.4c1.4,0.3,1.9,1.5,2.5,2.5c1.9,3.3,2.6,6.8,1.1,10.5
			c-0.3,0.7-0.4,1.5-0.6,2.2C296.5,58,296.3,58.6,295.6,58.8z"/>
		<path class="st30" d="M439.2,52.3c0,0.2,0,0.3,0,0.5c0.4,2.6-0.1,5.2,0.2,7.8c0.1,0.8-0.1,1.6-0.3,2.3c-0.3,1-1.1,1.8-2.2,1.8
			c-2.3-0.1-4.5,0.3-6.8,0.3c-0.6,0-1.1,0-1.5-0.6c2.7,0.6,5.3,0.1,8,0c2-0.1,2.5-1.6,2.5-3.8c0-1.1-0.1-2.1,0-3.2
			c0.1-0.8,0.1-1.6-0.1-2.4C438.9,54.2,438.8,53.2,439.2,52.3z"/>
		<path class="st31" d="M303.1,64.2c0,0.1,0,0.2,0,0.3c-0.9-0.5-1.3-1.3-1.2-2.3c0-1.3-0.5-2.6-0.5-3.9c0-3,1.3-3.9,3.8-4.4
			c2.4-0.4,2.4-0.3,2.4-2.8c0-0.3,0-0.6,0-0.8c0.1-0.1,0.1-0.1,0.2,0c0.2,0.8,0.1,1.7,0,2.5c-0.1,0.8-0.6,1.2-1.3,1.3
			c-0.7,0.1-1.4,0.2-2.1,0.3c-1.7,0.3-2.5,1.2-2.6,2.9c-0.1,1.7,0.1,3.4,0.3,5.1C302.4,63.3,302.7,63.8,303.1,64.2z"/>
		<path class="st32" d="M383.8,20.4c0.3,0.2,0.6,0.3,1,0.5c0.1,0.2,0,0.3-0.1,0.3c-2.2-0.3-4.4-0.2-6.6-0.2c-2.3,0-3.2,0.8-3.2,3.2
			c-0.1,3,0,6,0,9c0,0.6,0.1,1.2-0.2,1.8c-0.1,0.1-0.2,0.2-0.4,0.1c0-0.8,0-1.6-0.1-2.4c-0.1-0.7-0.1-1.4,0-2.1c0-2.3,0-4.6,0-6.9
			c0-1.9,0.6-2.6,2.4-3.2C379,20.2,381.4,20.2,383.8,20.4z"/>
		<path class="st33" d="M409.4,21.1c-0.1,0-0.2,0-0.3,0c-1.2,0.1-2.4-0.2-3.6-0.2c-1.1,0.1-2.2,0-3.3,0c-1.9,0-2.6,0.7-3.1,2.5
			c-0.1,0.6,0,1.3-0.4,1.9c-0.1,0.1-0.2,0.2-0.4,0.1c0-0.8,0-1.7,0.2-2.5c0.4-1.7,1.6-2.8,3.3-2.8c1.7,0,3.4,0,5.1,0
			C408,20.2,408.8,20.5,409.4,21.1z"/>
		<path class="st34" d="M374.2,35.1c0.1,0,0.1,0,0.2,0c0.5,0.4,0.4,1,0.4,1.6c0,5.8,0,11.5,0,17.3c0,0.5,0,1-0.2,1.4
			c-0.1,0.2-0.2,0.2-0.4,0.1c-0.3-5.3,0.1-10.6,0-15.9c-0.1-1.3-0.1-2.5,0-3.8C374.1,35.5,374.2,35.3,374.2,35.1z"/>
		<path class="st35" d="M410.2,62.7c0.1,0,0.1,0,0.2,0c-0.2,2.1-2.1,2.6-4.3,2.3c-1.2-0.1-2.3-0.1-3.4,0c-2.7,0.2-4.1-0.8-4.3-3.5
			c0-0.6,0-1.1,0-1.7c0.1-0.1,0.2-0.1,0.3,0.1c0.4,0.7,0.2,1.6,0.5,2.3c0.4,1.4,1.1,2,2.5,2c2,0.1,4.1,0,6.1,0
			C409,64.3,409.4,63.2,410.2,62.7z"/>
		<path class="st36" d="M334.4,25.9c-2.6,3.2-3.5,7-3.4,11.1c0,2.9,0,5.7,0,8.6c-0.1,0.1-0.1,0.1-0.2,0c0-3.3-0.1-6.7,0-10
			c0.1-3.2,0.8-6.3,2.8-8.9C333.8,26.4,334,26,334.4,25.9z"/>
		<path class="st37" d="M386.2,33.9c0,0.4,0,0.8,0,1.2c0.1,1.2,0.6,1.9,1.8,1.6c2.5-0.5,5.1,0.5,7.6-0.2c0.3-0.1,0.6,0.1,0.9,0.2
			c0.9,0.2,1.6,0.1,1.9-0.9c0.2-0.1,0.3,0,0.4,0.1c0,1.1-0.6,1.7-1.7,1.6c-3.1-0.2-6.2-0.2-9.3,0c-0.8,0.1-1.5-0.4-1.8-1.1
			c-0.4-1-0.7-2,0.1-3C386.4,33.4,386.3,33.6,386.2,33.9z"/>
		<path class="st38" d="M264.7,59.7c1.8,1.7,3.8,3.3,6.1,4.3c2.6,1.1,5.5,1.4,8.3,1.8c0.1,0,0.1,0.1,0.1,0.2c0,0.1,0,0.1-0.1,0.1
			c-4-0.2-7.8-1.1-11.3-3.3C266.6,61.9,265.4,61,264.7,59.7z"/>
		<path class="st39" d="M374.2,55.4c0.1,0,0.1,0,0.2,0c0.5,0.4,0.4,0.9,0.4,1.4c0,1.6,0,3.2,0,4.8c0.1,1.9,0.7,2.5,2.6,2.5
			c2.5,0,5,0.1,7.5-0.2c0.2,0.1,0.2,0.2,0.1,0.3c-0.5,0.4-1.2,0.5-1.8,0.5c-2.1,0-4.3,0-6.4,0c-1.7,0-2.5-0.8-2.6-2.6
			C374.1,60,374.2,57.7,374.2,55.4z"/>
		<path class="st40" d="M286.6,34.7c2.7,0.9,5.4,0.8,8,0.2c1.5-0.4,1.8-0.9,1.8-2.5c0-0.6,0-1.1,0-1.7c1.1,2.6-0.7,5.3-3.6,5
			c-1.5-0.2-3-0.1-4.5-0.2C287.6,35.5,286.9,35.5,286.6,34.7z"/>
		<path class="st41" d="M307.9,50.4c-0.1,0-0.1,0-0.2,0c0-3.5-0.1-6.9,0-10.4c0.1-1.7,0-3.3-0.1-5c0-0.4-0.1-0.9,0.3-1.2
			C308.2,39.3,307.9,44.9,307.9,50.4z"/>
		<path class="st42" d="M395.3,48.5c-2.4,0-4.8,0-7.1,0c-1.4,0-1.9,0.6-2,2c0,0.9,0,1.7,0,2.6c0.1,0.2,0.2,0.4-0.2,0.5
			c-0.7-1-0.7-4,0-4.9c0.5-0.7,1.2-1,2-0.9c2.2,0.2,4.4,0.1,6.6,0.2c0.2,0,0.4,0.1,0.6,0.2C395.3,48.2,395.3,48.3,395.3,48.5z"/>
		<path class="st43" d="M343.2,49.9c-0.6-3.4-0.6-6.7,0-10.1c0,2.3,0,4.6,0,6.9c0,1.1,0,2.1,0.2,3.2C343.4,50,343.3,50,343.2,49.9z"
			/>
		<path class="st44" d="M348.2,65.8c3.7-0.2,7.4-0.7,10.8-2.5c-0.6,1-1.7,1.1-2.5,1.4c-2.6,1-5.5,1.3-8.3,1.3
			C348.2,66,348.1,65.9,348.2,65.8C348.2,65.8,348.2,65.8,348.2,65.8z"/>
		<path class="st45" d="M283.4,20c-3.8-0.5-7.6-0.5-11.3,0.7c0.8-1,2.1-0.9,3.1-1.1c2.5-0.4,5-0.4,7.6,0
			C283.1,19.7,283.3,19.8,283.4,20z"/>
		<path class="st45" d="M263.9,26.7c-2,3.3-1.7,6.9-1.3,10.6c-0.3-0.2-0.5-0.5-0.5-0.8c0.1-2.6-0.5-5.2,0.5-7.8
			C262.9,27.9,263,27,263.9,26.7z"/>
		<path class="st27" d="M283.8,54.5c-0.7,0.5-1.5,0.5-2.3,0.5c-1.4,0-2.7,0-4.1-0.1c-1.2-0.1-2.2-0.5-2.8-1.6c2.4,1.8,5.3,1.4,8,1.3
			C283.1,54.6,283.4,54.5,283.8,54.5z"/>
		<path class="st46" d="M324.5,64.3c-0.1,0-0.2,0-0.3,0c1-0.7,1.3-1.8,1.3-3c0-1.3,0-2.5,0-3.8c0-0.8-0.2-1.6-0.7-2.2
			c0.8,0.2,0.9,0.8,0.9,1.5c0,1.8,0,3.6,0,5.3C325.7,63.1,325.4,63.8,324.5,64.3z"/>
		<path class="st47" d="M450,30.7c-0.1,0-0.2,0-0.3,0c1-1.4,1.3-3,1.1-4.7c-0.1-1.2-0.1-2.4-0.1-3.7c0,0,0.1,0,0.1,0.1
			C451,25.2,451.9,28.1,450,30.7z"/>
		<path class="st48" d="M462.5,19c0,3.4,0,6.9,0,10.3c-0.1,0.1-0.1,0.1-0.2,0c0-3,0-6,0-9.1C462.2,19.8,462.1,19.4,462.5,19z"/>
		<path class="st22" d="M330.7,45.6c0.1,0,0.1,0,0.2,0c0,1.4,0.1,2.8,0,4.2c-0.1,1.8,0.2,3.5,0.8,5.2c-1-0.9-1-2.2-1-3.4
			C330.6,49.6,330.7,47.6,330.7,45.6z"/>
		<path class="st18" d="M398.4,57.4c0.1-1.9-0.2-3.9,0.2-5.8c0.2-1,0-2-0.7-2.8c0.1-0.1,0.3-0.1,0.4-0.1c0.6,0.3,0.8,0.8,0.8,1.4
			c0,2.4,0,4.8-0.4,7.3C398.7,57.4,398.6,57.4,398.4,57.4z"/>
		<path class="st49" d="M302.4,22.3c-0.4,2.6-0.7,5.2,0.5,7.7c-0.7-0.3-1-1-1-1.6c-0.1-1.7-0.1-3.3-0.1-5
			C301.9,23,301.9,22.5,302.4,22.3z"/>
		<path class="st50" d="M398.6,35.8c-0.1,0-0.2,0-0.3,0c0.5-1.2,0-2.3,0-3.5c0.1-1.5,0-2.9,0-4.4c0.1-0.1,0.3-0.1,0.4,0.1
			c0.3,0.4,0.3,0.8,0.3,1.2c-0.2,1.5-0.1,3,0.1,4.5C399.2,34.4,399.4,35.2,398.6,35.8z"/>
		<path class="st51" d="M343.2,39.9c-0.5-2.3-0.7-4.7,0.7-6.8c-0.4,1.7-0.9,3.3-0.8,5.1C343.2,38.7,343.7,39.3,343.2,39.9z"/>
		<path class="st52" d="M415.5,23.1c0,1.5,0,3.1,0,4.6c0,1.2,0.3,2.3,1.2,3.1c-1.1-0.1-1.4-1.1-1.4-1.8c-0.1-1.8,0-3.7,0-5.5
			C415.2,23.3,415.4,23.2,415.5,23.1z"/>
		<path class="st53" d="M386.2,24.7c0.1,2.2,0.3,4.5,0,6.7c0.1,0.2,0.2,0.4-0.1,0.5c-0.6-0.4-0.5-1.1-0.5-1.6c0.2-1.4,0.1-2.8,0-4.1
			c-0.1-0.6-0.2-1.3,0.4-1.8C386.2,24.5,386.3,24.6,386.2,24.7z"/>
		<path class="st13" d="M397.9,15.6c2.1,0,4.3,0,6.4,0c0.3,0,0.7-0.1,1,0.2c-2.2,0-4.4,0-6.6,0C398.5,15.8,398.2,15.9,397.9,15.6z"
			/>
		<path class="st54" d="M352.7,54.5c-0.4,0.3-0.8,0.5-1.2,0.5c-1.9-0.1-3.9,0.4-5.8-0.5c1.3,0,2.7,0.3,4,0.3
			C350.7,54.7,351.7,54.6,352.7,54.5z"/>
		<path class="st55" d="M386.1,53.6c0-0.2,0-0.4,0.1-0.6c0.5,1.4,0.2,2.8,0.2,4.3c0,1.1,0.3,2.1-0.2,3.2c-0.2-0.1-0.3-0.4-0.3-0.6
			c-0.1-1.7,0-3.5-0.1-5.2C385.8,54.3,385.8,53.9,386.1,53.6z"/>
		<path class="st56" d="M383.8,20.4c-2.4,0-4.8,0-7.2,0c1.5-0.5,3-0.2,4.4-0.2C381.9,20.2,382.9,19.9,383.8,20.4z"/>
		<path class="st32" d="M386.1,59.9c0,0.2,0,0.4,0.1,0.6c0,0.7,0,1.4,0,2.1c0,0.8-0.3,1.5-1.2,1.7c0-0.1,0-0.2,0-0.2
			c0.4-1,0.7-2.1,0.7-3.2C385.6,60.5,385.6,60.1,386.1,59.9z"/>
		<path class="st56" d="M386.2,24.7c0-0.1,0-0.2-0.1-0.3c-0.4-1.1-0.7-2.3-1.4-3.3c0-0.1,0-0.2,0-0.3
			C386.2,21.7,386.7,23,386.2,24.7z"/>
		<path class="st57" d="M351.8,19.7c-1.5,0-3,0-4.5-0.1c-0.1,0-0.1-0.1-0.1-0.1c0,0,0.1-0.1,0.1-0.1c1.8,0.1,3.6-0.3,5.3,0.2
			C352.3,19.9,352.1,19.8,351.8,19.7z"/>
		<path class="st58" d="M342.7,65c1.3-0.1,2.6,0.3,3.8,0.8c0.1,0.1,0.1,0.1,0.1,0.2c0,0.1-0.1,0.1-0.1,0.1
			C345.3,65.6,343.9,65.5,342.7,65z"/>
		<path class="st13" d="M312.7,15.6c1.4,0.1,2.7-0.2,4.1,0.2C315.4,15.8,314.1,16.1,312.7,15.6z"/>
		<path class="st15" d="M294.9,15.6c1.4,0,2.7,0,4.1,0C297.7,16,296.3,16,294.9,15.6z"/>
		<path class="st59" d="M374.1,35.8c0,1.3,0,2.5,0,3.8C373.8,38.3,373.8,37.1,374.1,35.8z"/>
		<path class="st45" d="M279.1,66c0-0.1,0-0.2,0-0.2c1.2,0,2.4,0,3.6-0.1C281.6,66.4,280.3,65.9,279.1,66z"/>
		<path class="st60" d="M347.3,19.5c0,0.1,0,0.1,0,0.2c-0.8,0.3-1.6,0.3-2.4,0.3C345.6,19.5,346.4,19.4,347.3,19.5z"/>
		<path class="st3" d="M332.1,15.6c1.1,0,2.3,0,3.4,0C334.4,16,333.3,16,332.1,15.6z"/>
		<path class="st61" d="M398.2,48.7c-0.1,0-0.2,0-0.3,0c-0.9-0.3-1.7-0.2-2.6-0.3c0-0.1,0-0.1,0-0.2
			C396.6,47.6,397.7,47.8,398.2,48.7z"/>
		<path class="st55" d="M398.4,57.4c0.1,0,0.2,0,0.3,0c0.5,0.8,0.7,1.6,0,2.4c-0.1,0-0.2,0-0.3,0C398.4,59,398.4,58.2,398.4,57.4z"
			/>
		<path class="st3" d="M328.5,15.6c1.1,0,2.1,0,3.2,0C330.6,16,329.6,16,328.5,15.6z"/>
		<path class="st62" d="M462.2,29.3c0.1,0,0.1,0,0.2,0c0,1,0,2.1,0,3.1C462,31.4,462.3,30.3,462.2,29.3z"/>
		<path class="st63" d="M343.2,49.9c0.1,0,0.2,0,0.2,0c0.1,0.8,0.2,1.7,0.2,2.5C343.1,51.7,343.1,50.8,343.2,49.9z"/>
		<path class="st22" d="M390.5,15.6c1,0.1,1.9-0.2,2.9,0.2C392.4,15.8,391.4,16.1,390.5,15.6z"/>
		<path class="st22" d="M385.4,15.6c1,0,1.9,0,2.9,0C387.4,16,386.4,16,385.4,15.6z"/>
		<path class="st20" d="M252.7,15.6c0.9,0.1,1.8-0.2,2.6,0.2C254.5,15.8,253.6,16.1,252.7,15.6z"/>
		<path class="st20" d="M248.2,15.6c0.8,0,1.6,0,2.4,0C249.8,16,249,16,248.2,15.6z"/>
		<path class="st64" d="M386.1,32c0-0.2,0-0.4,0.1-0.5c0.3,0.8,0.3,1.6,0,2.4c0-0.2,0-0.3-0.1-0.5C385.8,32.9,385.8,32.4,386.1,32z"
			/>
		<path class="st65" d="M398.7,27.9c-0.1,0-0.2,0-0.3,0c0-0.8,0-1.6,0-2.4c0.1,0,0.2,0,0.3,0C399.1,26.2,399.1,27.1,398.7,27.9z"/>
		<path class="st44" d="M374.1,30.5c0,0.7,0,1.4,0,2.1C373.8,31.9,373.8,31.2,374.1,30.5z"/>
		<path class="st9" d="M409.7,15.6c0.6,0.1,1.2-0.2,1.7,0.2C410.8,15.8,410.2,16,409.7,15.6z"/>
		<path class="st66" d="M291.1,23.1c-0.5-0.2-0.9-0.4-1.3-0.8C290.4,22.4,290.9,22.6,291.1,23.1z"/>
		<path class="st67" d="M346.6,66c0-0.1,0-0.2,0-0.2c0.6,0,1.1,0,1.7,0c0,0.1,0,0.2,0,0.2C347.7,66,347.1,66,346.6,66z"/>
		<path class="st68" d="M351.8,19.7c0.3,0,0.6,0,0.8-0.1c0.3,0,0.5,0,0.7,0.3C352.8,20,352.3,20,351.8,19.7z"/>
		<path class="st69" d="M426.4,31.4c0.5,0,0.7,0.3,0.8,0.7C426.9,32,426.6,31.7,426.4,31.4z"/>
		<path class="st23" d="M398.7,27.9c0-0.8,0-1.6,0-2.4c0.1-0.9,0-1.8,0.3-2.6c0.3-1.2,1.2-2.1,2.3-2.1c2.6,0,5.3-0.5,7.9,0.4
			c1,0.8,1.3,1.9,1.2,3.2c-0.1,2,0,4,0,6c0,8.3,0.1,16.5,0,24.8c0,2.5,0.2,5.1-0.2,7.6c-0.4,1.5-1.4,2-2.9,2c-1.7,0-3.3,0-5,0
			c-2.4,0-3.5-1-3.6-3.4c0-0.5,0-1,0-1.4c0.2-0.8,0.1-1.6,0-2.4c0.1-2.3,0.1-4.6,0.2-6.9c0-0.6,0-1.3-0.6-1.7
			c-0.8-0.9-1.9-0.4-2.9-0.5c-2.4-0.1-4.9-0.2-7.3-0.2c-1.5,0-2.1,0.7-2.1,2.2c0,1.1-0.2,2.2,0.2,3.3c0,2.1,0,4.2,0,6.3
			c-0.4,0.7-0.2,1.5-0.3,2.2c0,0.8-0.2,1.5-0.9,2c-2.9,0.9-5.9,0.5-8.8,0.4c-1.2,0-1.7-0.9-1.8-2.4c-0.1-1.8,0-3.6-0.1-5.4
			c0-0.4,0-0.8,0-1.2c0.1-3.2,0-6.4,0.1-9.7c0.1-3.6,0-7.2,0-10.7c0-2.9,0-5.9,0-8.8c0-1.2-0.1-2.3,0.2-3.4c0.4-1.4,1.1-2.1,2.5-2.1
			c2-0.1,4,0,6,0c0.6,0,1.1,0.4,1.7,0.5c1.2,0.8,1.4,2,1.4,3.3c-0.2,0.7-0.2,6.9,0,7.6c0,0.4,0,0.9,0,1.3c-0.3,0.7-0.3,1.4-0.2,2.1
			c0.2,1.3,0.8,1.7,2.1,1.7c2.9-0.2,5.9-0.1,8.8,0c1,0,1.7-0.2,1.8-1.3c0.4-1.2,0.1-2.4,0.1-3.5C398.7,30.8,398.7,29.3,398.7,27.9z"
			/>
	</g>
</g>
</svg>
