<?xml version="1.0" encoding="utf-8"?>
<!-- Generator: Adobe Illustrator 21.1.0, SVG Export Plug-In . SVG Version: 6.00 Build 0)  -->
<svg version="1.1" id="Layer_1" xmlns="http://www.w3.org/2000/svg" xmlns:xlink="http://www.w3.org/1999/xlink" x="0px" y="0px"
	 viewBox="0 0 507.1 100" style="enable-background:new 0 0 507.1 100;" xml:space="preserve">
<style type="text/css">
	.st0{fill:#F6AF06;}
	.st1{fill:#A10000;}
	.st2{fill:#BCBCBC;}
	.st3{fill:#B0B0B0;}
	.st4{fill:#9B9B9B;}
	.st5{fill:#C3C3C3;}
	.st6{fill:#C5C5C5;}
	.st7{fill:#959595;}
	.st8{fill:#939393;}
	.st9{fill:#FEFEFE;}
</style>
<g>
	<g>
		<path class="st0" d="M382.6,75.2c-35.4,0-70.8,0-106.2,0c-1.1,0-2.1,0.1-3.2,0.1c-0.4,0-0.9,0-0.9-0.5c-0.1-0.5,0.3-0.9,0.7-1
			c1.8-0.4,3.1-1.7,4.5-2.7c2-1.4,3.2-3.5,4.4-5.6c1.8-3.1,2.1-6.6,2.1-10.1c0-5.4,0-10.7,0-16.1c0-3.8-1-7.2-3.2-10.2
			c-1.6-2.1-3.4-4.2-5.9-5.4c-0.7-0.3-1.2-0.9-1.8-1.4c-0.3-0.3-0.4-0.6-0.3-1c0.1-0.4,0.5-0.3,0.8-0.3c2.3,0,4.6,0,6.8,0
			c3.5,0.1,7,0.1,10.4,0.1c5.2-0.1,10.4,0,15.6-0.1c5.7-0.1,11.4,0,17.2,0c7.9,0,15.8,0,23.7,0c4.9,0,9.8,0.1,14.7,0.1
			c2.4,0,4.8-0.2,7.2-0.1c3,0.1,6.1,0,9.1,0c11.3,0.1,22.5-0.1,33.8,0c3.1,0,6.2,0.2,9.3,0.1c5-0.2,10,0,15-0.1
			c2.5,0,5.1-0.2,7.6,0.1c0.9,0.1,1.9-0.1,2.9-0.1c9.6,0,19.1-0.1,28.7,0c2.3,0,4.5-0.1,6.8-0.1c2.3,0,4.6,0.3,6.9,0
			c1.6-0.2,2.2,0.4,2.2,2.1c0,3.5,0,7,0,10.6c0,4.1,0,8.1,0,12.2c0,9.1,0,18.2,0.1,27.4c0,1.3-0.5,1.8-1.8,1.8
			c-26.6,0-53.2,0-79.8,0C400.6,75.1,391.6,75.1,382.6,75.2C382.6,75.1,382.6,75.1,382.6,75.2z"/>
		<path d="M94.3,48.1c-0.1,11.3-8.9,21.2-20.2,22.6C62.7,72.1,52.3,66.1,48.4,56c-0.9-2.3-1.4-4.7-1.4-7.2c-0.2-0.8,0.3-1,0.9-1
			c2.5,0,5-0.2,7.5,0.1c0.8,0.5,0.7,1.3,0.8,2c0.9,5.8,4,9.8,9.5,11.8c9.1,3.4,18.5-2.9,19.5-12.5c0-0.4,0-0.8,0.2-1.2
			c1.3-0.7,1.3-1.4,0.1-2.3c-0.2-0.1-0.3-0.3-0.4-0.5c-0.8-3-2-5.8-4.3-8c-5.1-5-13.3-5.5-19-1.1c-2.8,2.1-4.5,4.9-5.3,8.3
			c-0.1,0.6-0.1,1.2-0.8,1.5C53,46.2,50.4,46,47.9,46c-0.3,0-0.6-0.1-0.8-0.4c0.6-9.5,8-17.8,17.9-20.3c11.3-2.8,23.1,3,27.6,13.5
			c0.9,2.1,1.5,4.4,1.7,6.7C93.9,46,93.4,45.9,93,46c-0.5,0.1-0.7,0.4-0.7,0.9c0,0.5,0.2,0.8,0.8,0.9C93.5,47.7,94,47.6,94.3,48.1z"
			/>
		<path d="M254.9,53.8c-0.6-0.4-0.8-1-0.8-1.7c0.1-1.3,0-2.7,0-4c0-0.7,0.2-1.3,0.7-1.7c5.7-0.1,11.3,0,17,0c0.1,0,0.2,0.1,0.3,0.1
			c0.6,0.5,0.7,1.1,0.8,1.9c0.1,3.3,0.1,6.6-0.9,9.8c-2.2,7.1-7,11.1-14.3,12.3c-1.2,0.2-2.3,0.4-3.5,0.5c-1.2,0.1-2.4,0.1-3.6,0
			c-4.8-0.2-9.2-1.4-13.1-4.3c-3.4-2.5-5.8-5.8-7.3-9.7c-1.4-3.5-2-7.2-1.7-10.9c0.6-6.8,3.4-12.4,8.9-16.6
			c3.4-2.6,7.1-4.1,11.3-4.5c0.6-0.1,1.3-0.2,1.9-0.3c1.1-0.1,2.3-0.1,3.4,0c5.9,0.4,10.8,2.6,14.8,7c0.6,0.6,0.6,1.3-0.2,1.9
			c-1.5,1.2-3.1,2.4-4.6,3.6c-0.5,0.4-0.9,0.4-1.4-0.1c-2.4-2.5-5.5-3.9-9-4.1c-1-0.2-1.9-0.1-2.9,0c-6.1,0.5-10.2,3.6-12.5,9.3
			c-0.5,1.2-0.5,2.5-0.9,3.7c0.1,1.2,0.1,2.5,0,3.7c0.4,1.4,0.5,2.9,1,4.2c2.3,5.5,6.4,8.5,12.3,9c1.1,0.1,2.3,0.1,3.4,0
			c1.9-0.1,3.8-0.5,5.5-1.4c3-1.5,4.6-3.9,4.7-7.3c-0.4-0.3-0.8-0.1-1.3-0.2C260.4,53.8,257.6,54,254.9,53.8z"/>
		<path d="M212.6,53.7c0-7,0-13.7,0-20.5c0-2,0-4,0-6c0-1.3,0.4-1.7,1.7-1.7c1.5,0,3,0,4.6,0c1.5,0,1.8,0.3,1.8,1.8
			c0,11.7,0,23.4,0,35c0,2.3,0,4.6,0,6.8c0,0.6,0,1-0.7,1.3c-0.7,0.3-0.9,0-1.3-0.4c-9-8.4-17.9-16.8-26.9-25.2
			c-1-0.9-2.1-1.8-3-2.7c0,0.1,0,0.5,0,0.9c0,8.3,0,16.6,0,24.8c0,1.8-0.2,2-2,2c-1.4,0-2.9,0-4.3,0c-1.3,0-1.7-0.4-1.7-1.6
			c0-14,0-28,0-42c0-0.6,0.2-0.9,0.7-1.2c0.6-0.3,0.9-0.1,1.2,0.3c8.9,8.3,17.8,16.5,26.6,24.7C210.4,51.2,211.4,52.4,212.6,53.7z"
			/>
		<path d="M34.2,51.2c0,5.6,0,11.2,0,16.8c0,1.7-0.2,1.9-2,1.9c-1.6,0-3.1,0-4.7,0c-1.7,0-1.9-0.2-1.9-2c0-11.2,0-22.5,0-33.7
			c0-1-0.2-1.4-1.3-1.3c-2.8,0.1-5.7,0-8.5,0c-1.3,0-1.6-0.4-1.6-1.6c0-1.5,0-3,0-4.4c0-1,0.4-1.5,1.4-1.5c9.5,0,18.9,0,28.4,0
			c1,0,1.5,0.5,1.5,1.5c0,1.5,0,3,0,4.6c0,1-0.5,1.5-1.5,1.5c-2.9,0-5.8,0-8.8,0c-0.9,0-1.1,0.3-1.1,1.1
			C34.2,39.8,34.2,45.5,34.2,51.2z"/>
		<path d="M102.3,47.6c0-6.8,0-13.5,0-20.3c0-1.6,0.3-1.9,1.9-1.9c1.6,0,3.2,0,4.8,0c1.6,0,1.9,0.3,1.9,1.9c0,11.2,0,22.4,0,33.6
			c0,1.1,0.3,1.3,1.3,1.3c4.2-0.1,8.4,0,12.6,0c1.3,0,1.7,0.4,1.7,1.7c0,1.5,0,3,0,4.6c0,1-0.5,1.5-1.5,1.5c-7,0-14.1,0-21.1,0
			c-1.2,0-1.5-0.4-1.5-1.7C102.3,61.3,102.3,54.4,102.3,47.6z"/>
		<path d="M132,47.7c0-6.8,0-13.5,0-20.3c0-1.7,0.3-2,2-2c1.6,0,3.2,0,4.8,0c1.4,0,1.8,0.4,1.8,1.8c0,11.2,0,22.4,0,33.6
			c0,1.2,0.3,1.4,1.4,1.4c4.2-0.1,8.3,0,12.5,0c1.3,0,1.7,0.4,1.7,1.7c0,1.5,0,3,0,4.6c0,1-0.5,1.5-1.5,1.5c-7,0-14.1,0-21.1,0
			c-1.1,0-1.5-0.6-1.5-1.6C132,61.4,132,54.5,132,47.7z"/>
		<path d="M162.2,47.7c0-6.8,0-13.7,0-20.5c0-1.5,0.3-1.7,1.7-1.7c1.6,0,3.2,0,4.8,0c1.7,0,1.9,0.2,1.9,1.9c0,12.9,0,25.8,0,38.6
			c0,0.8,0,1.7,0,2.5c0,1-0.5,1.5-1.5,1.4c-1.8,0-3.7,0-5.5,0c-1.1,0-1.5-0.5-1.5-1.6C162.2,61.4,162.2,54.6,162.2,47.7z"/>
		<path class="st1" d="M47,45.6c3,0,5.9,0,8.9,0c1.2,0.1,0.8,1,0.8,1.6c0,0.5-0.1,1.2-1,0.9c-2.6,0-5.3,0-7.9-0.1
			c-0.6,0-0.8,0.2-0.8,0.7C46.8,47.7,46.6,46.6,47,45.6z"/>
		<path class="st1" d="M94.3,48.1c-0.4,0-0.8-0.1-1.2,0c-1,0.1-1.2-0.3-1.3-1.3c0-1,0.3-1.3,1.2-1.2c0.3,0,0.7,0,1.1-0.1
			c2.1,0,4.3,0.1,6.4,0.1c1,0,1,0.5,0.9,1.1c-0.1,0.6,0.3,1.4-0.9,1.3C98.5,48,96.4,48.1,94.3,48.1z"/>
		<path class="st2" d="M272.2,46.4c-5.1,0-10.2,0-15.3-0.1c-0.7,0-1.4,0-2,0c0.3-0.3,0.7-0.2,1-0.2c5,0,10.1,0,15.1,0
			C271.4,46.1,271.8,46,272.2,46.4z"/>
		<path class="st3" d="M254.9,53.8c2.8,0,5.6,0,8.5,0c0.4,0,0.8-0.2,1.1,0.2c-2.8,0-5.5,0-8.3,0C255.7,54,255.2,54.2,254.9,53.8z"/>
		<path class="st4" d="M237.4,49.5c0-1.2,0-2.5,0-3.7C237.7,47.1,237.7,48.3,237.4,49.5z"/>
		<path class="st5" d="M250.5,70.9c1.2,0,2.4,0,3.6,0C253,71.2,251.8,71.2,250.5,70.9z"/>
		<path class="st6" d="M253.9,24.7c-1.1,0-2.3,0-3.4,0C251.7,24.4,252.8,24.4,253.9,24.7z"/>
		<path class="st7" d="M254.2,62.7c-1.1,0.3-2.3,0.3-3.4,0C251.9,62.7,253,62.7,254.2,62.7z"/>
		<path class="st8" d="M250.8,32.9c1-0.2,1.9-0.3,2.9,0C252.7,32.9,251.8,32.9,250.8,32.9z"/>
		<path class="st9" d="M383.6,46.1c2.6,0,5.1,0,7.7,0c0.4,0,0.9-0.1,0.9,0.6c0,3.8,0.2,7.7-1.2,11.4c-2.2,5.9-6.5,9.2-12.5,10.6
			c-3.2,0.7-6.4,0.7-9.6,0.4c-4.4-0.4-8.5-1.9-12-4.8c-3.8-3.2-6.1-7.3-7.1-12c-1.4-7-0.5-13.8,4.1-19.5c3.3-4.1,7.6-6.8,12.9-7.7
			c4.8-0.8,9.6-0.9,14.2,1c2.8,1.1,5.3,2.9,7.3,5.3c0.4,0.5,0.3,0.7-0.1,1c-1.4,1-2.9,2-4.3,3.1c-0.4,0.3-0.6,0.3-0.9-0.1
			c-4.5-4.9-12.7-5.2-18-2.6c-4.3,2.2-7,5.7-7.9,10.6c-0.8,4.5-0.2,8.7,2.3,12.6c2.3,3.5,5.7,5.6,9.8,6.2c3.9,0.6,7.7,0.5,11.3-1.5
			c2.9-1.6,4.4-4.1,4.7-7.3c0.1-0.8-0.2-1.1-1-1.1c-2.8,0.1-5.5,0-8.3,0c-0.9,0-1.1-0.2-1-1.1c0.1-1.4,0.1-2.8,0-4.2
			c0-0.8,0.2-1,1-1C378.4,46.2,381,46.1,383.6,46.1z"/>
		<path class="st9" d="M437.5,46.9c0,6.8,0,13.6,0,20.4c0,1-0.3,1.2-1.2,1.2c-1.6-0.1-3.3-0.1-4.9,0c-0.9,0-1.1-0.2-1.1-1.1
			c0-6.2,0-12.3,0.1-18.5c0-1.1-0.3-1.4-1.4-1.3c-6.1,0-12.2,0-18.4,0c-0.9,0-1.2,0.2-1.2,1.2c0,6.2,0,12.4,0,18.6
			c0,1-0.3,1.2-1.2,1.2c-1.7-0.1-3.4,0-5.2,0c-0.7,0-0.9-0.2-0.9-0.9c0-13.8,0-27.7,0-41.5c0-0.7,0.2-0.9,0.9-0.9
			c1.8,0,3.5,0.1,5.3,0c0.8,0,1.1,0.2,1.1,1c0,4.6,0,9.1,0,13.7c0,1,0.3,1.2,1.2,1.2c6.2,0,12.4,0,18.6,0c0.9,0,1.1-0.2,1.1-1.1
			c-0.1-4.5,0-9-0.1-13.6c0-1,0.3-1.3,1.3-1.2c1.6,0.1,3.3,0.1,4.9,0c0.8,0,1.1,0.2,1.1,1.1C437.5,33.1,437.5,40,437.5,46.9z"/>
		<path class="st9" d="M306.6,69.1c-2.6,0.2-4.9-0.1-7.1-1.2c-3.5-1.6-5.5-4.3-6.6-7.9c-0.1-0.4,0-0.8,0.5-1
			c1.5-0.7,3.1-1.4,4.6-2.1c0.5-0.2,0.7,0,0.9,0.4c1.8,5,6.8,5.7,10.6,4.7c2-0.5,3.3-2.1,3.8-4.3c0.5-2.5-0.6-4.2-2.3-5.6
			c-2.1-1.7-4.7-2.7-7.1-3.9c-2.7-1.4-5.3-2.9-7.4-5.2c-1.5-1.6-2.2-3.6-2.4-5.7c-0.1-2.6,0.1-5.1,1.6-7.5c1.7-2.7,4.2-4.4,7.2-5
			c3.2-0.7,6.6-0.7,9.8,0.4c2.7,0.9,4.8,2.5,6.2,4.9c0.7,1.3,0.7,1.5-0.6,2.1c-1.1,0.6-2.3,1-3.3,1.7c-1,0.7-1.5,0.3-2-0.5
			c-1.8-2.9-5.8-3.4-8.5-2.2c-3.6,1.6-4,6-0.7,8.6c2.7,2.1,5.8,3.2,8.7,4.8c2.6,1.4,5,2.9,6.6,5.4c1,1.4,1.4,3,1.4,4.8
			c0,2.1,0,4.2-0.7,6.2c-1.3,3.6-3.7,5.8-7.1,7.2C310.8,69,308.7,69.4,306.6,69.1z"/>
		<path class="st9" d="M457.2,50c0-5.8,0-11.6,0-17.4c0-0.9-0.2-1.2-1.1-1.1c-3.1,0.1-6.2,0-9.4,0c-0.9,0-1.1-0.3-1.1-1.1
			c0.1-1.4,0-2.9,0-4.3c0-0.6,0.2-0.8,0.8-0.8c9.5,0,19,0,28.4,0c0.7,0,0.8,0.3,0.8,0.8c0,1.5,0,3,0,4.6c0,0.7-0.2,0.9-0.9,0.9
			c-3,0-6.1,0-9.1,0c-1,0-1.3,0.2-1.3,1.3c0,11.4,0,22.8,0.1,34.2c0,1.1-0.3,1.4-1.3,1.3c-1.6-0.1-3.2,0.3-4.9,0.3
			c-0.8,0-1.1-0.2-1.1-1.1C457.2,61.6,457.2,55.8,457.2,50z"/>
		<path class="st9" d="M338.4,47c0,6.8,0,13.5,0,20.3c0,1-0.3,1.3-1.3,1.2c-1.6-0.1-3.2-0.1-4.8,0c-0.9,0-1.2-0.2-1.2-1.2
			c0-7.6,0-15.3,0-22.9c0-6,0-12,0-18c0-1,0.3-1.2,1.2-1.2c1.6,0.1,3.3,0.1,4.9,0c0.9,0,1.1,0.2,1.1,1.1
			C338.4,33.2,338.4,40.1,338.4,47z"/>
		<path class="st9" d="M55.7,48.1c0.2-0.1,0.7,0.1,0.6-0.3c-0.1-0.7,0.6-1.6-0.4-2.2c0.8-7.7,8.5-13.8,16.2-12.8
			c7,0.9,11.6,5.3,13.2,12.6c-0.3,0.7-1,0.6-1.5,0.6c-1.7,0-3.4,0-5.1,0c-0.4,0-0.9-0.1-1.1,0.5c-0.3,0.6,0.1,1.2,1,1.2
			c1.8,0.1,3.6,0,5.4,0c0.5,0,1.1-0.1,1.6,0.4c-0.1,7.9-6.2,14.3-14.1,14.8c-7.6,0.5-14.5-5.2-15.5-13
			C55.8,49.3,55.8,48.7,55.7,48.1z"/>
		<path class="st1" d="M85.4,48.1c-2.5,0-5-0.1-7.5,0c-1.1,0-0.9-0.6-0.8-1.2c0-0.6-0.3-1.3,0.8-1.2c2.1,0.1,4.2,0,6.4,0
			c0.4,0,0.8,0.2,1.1-0.2c0.7,0.3,1.5,0.3,1.4,1.5C86.6,47.9,86.3,48.1,85.4,48.1z"/>
		<path class="st1" d="M66.4,48c-1.4,0-2.7,0-4.1,0c-0.9,0-0.8-0.6-0.7-1c0.1-0.5-0.6-1.4,0.6-1.4c2.8,0,5.5,0,8.3,0
			c0.5,0,0.7,0.1,0.7,0.6c0.1,1.8,0.1,1.8-1.6,1.8C68.6,48,67.5,48,66.4,48z"/>
	</g>
</g>
</svg>
