<?xml version="1.0" encoding="iso-8859-1"?>
<!-- Generator: Adobe Illustrator 21.1.0, SVG Export Plug-In . SVG Version: 6.00 Build 0)  -->
<svg version="1.1" id="Layer_1" xmlns="http://www.w3.org/2000/svg" xmlns:xlink="http://www.w3.org/1999/xlink" x="0px" y="0px"
	 viewBox="0 0 203 207.6" style="enable-background:new 0 0 203 207.6;" xml:space="preserve">
<style type="text/css">
	.st0{fill:#FFFFFF;}
</style>
<g>
	<g>
		<path class="st0" d="M175.1,167.6c-7.3,0-14.5,0-21.9,0c0-7.4,0-14.6,0-21.9c-5.3,0-10.4,0-15.7,0c0,7.3,0,14.5,0,21.9
			c-7.4,0-14.6,0-21.9,0c0,5.3,0,10.4,0,15.7c7.3,0,14.5,0,22,0c0,7.4,0,14.6,0,21.8c5.3,0,10.4,0,15.7,0c0-7.3,0-14.5,0-21.8
			c7.3,0,14.5,0,21.8,0C175.1,178.1,175.1,173,175.1,167.6z"/>
		<path d="M2.6,205.2c0-0.7,0-1.4,0-2c0-9.2,0-18.4,0-27.6c0-1.2,0.3-2.1,1.2-2.9c25.1-25,50.1-50.1,75.2-75.1c1-1,1.1-1.7,0.6-3
			C67.2,63.7,79.8,29.4,109,14.4c36.6-18.7,81.1,2.4,89.9,42.5c7.7,35.2-15.7,69.7-51.2,75.4c-12,1.9-23.6,0.6-34.7-4.1
			c-1-0.4-1.6-0.3-2.3,0.5c-4.3,4.3-8.6,8.6-12.9,12.9c-0.6,0.6-1.6,1-2.4,1c-9.3,0.1-18.6,0-28,0c-0.6,0-1.2,0-1.9,0
			c0,10.5,0,20.8,0,31.3c-10.5,0-20.8,0-31.4,0c0,10.6,0,20.9,0,31.3C23.5,205.2,13.2,205.2,2.6,205.2z M137.5,93.9
			c12.9,0.1,23.5-10.4,23.6-23.3c0.1-13.2-10.3-23.7-23.4-23.8c-13.1,0-23.7,10.4-23.7,23.5C114.1,83.4,124.5,93.8,137.5,93.9z"/>
		<path d="M175.1,167.6c0,5.4,0,10.5,0,15.8c-7.3,0-14.4,0-21.8,0c0,7.3,0,14.5,0,21.8c-5.3,0-10.4,0-15.7,0c0-7.2,0-14.4,0-21.8
			c-7.4,0-14.7,0-22,0c0-5.3,0-10.4,0-15.7c7.3,0,14.5,0,21.9,0c0-7.4,0-14.6,0-21.9c5.3,0,10.4,0,15.7,0c0,7.3,0,14.5,0,21.9
			C160.6,167.6,167.8,167.6,175.1,167.6z"/>
	</g>
</g>
</svg>
