<?xml version="1.0" encoding="utf-8"?>
<!-- Generator: Adobe Illustrator 21.1.0, SVG Export Plug-In . SVG Version: 6.00 Build 0)  -->
<svg version="1.1" id="Layer_1" xmlns="http://www.w3.org/2000/svg" xmlns:xlink="http://www.w3.org/1999/xlink" x="0px" y="0px"
	 viewBox="0 0 760 678.9" style="enable-background:new 0 0 760 678.9;" xml:space="preserve">
<style type="text/css">
	.st0{fill:#FFFFFF;}
</style>
<g>
	<g>
		<path class="st0" d="M565.5,274.8C566,137.8,454.3,27.4,318.2,27.5C180.5,27.5,73,138,70.5,269.6
			C67.9,413.2,184.2,522.5,318,522.4C453.9,522.2,566,412.2,565.5,274.8z M713.9,470.8c-29.8,0-59.4,0-89.3,0c0-29.9,0-59.5,0-89.1
			c-15.6,0-30.9,0-46.5,0c0,29.8,0,59.4,0,89.2c-29.8,0-59.3,0-89,0c0,15.5,0,30.8,0,46.4c29.8,0,59.3,0,89.2,0
			c0,29.9,0,59.5,0,89.3c15.5,0,30.8,0,46.5,0c0-29.8,0-59.5,0-89.5c29.9,0,59.5,0,89.1,0C713.9,501.6,713.9,486.5,713.9,470.8z"/>
		<path d="M565.5,274.8C566,412.2,453.9,522.2,318,522.4C184.2,522.5,67.9,413.2,70.5,269.6C73,138,180.5,27.5,318.2,27.5
			C454.3,27.4,566,137.8,565.5,274.8z M121.9,249.8c0.8,0.2,1,0.3,1.2,0.3c23.2,0,46.4,0,69.6,0.1c1.7,0,2.4-0.6,2.4-2.3
			c0.3-5.6,0.5-11.3,1.2-16.9c1.4-12,2.8-24,4.7-35.9c1.6-10,4-19.9,6.1-29.8c0.4-1.9,0.1-2.7-2-3.4c-12.3-4.1-24.6-8.5-36.8-12.9
			c-1.7-0.6-2.5-0.5-3.6,0.9c-8.5,10.6-16,21.9-22.3,34c-9.3,17.9-15.5,36.9-19.3,56.7C122.6,243.5,122.3,246.6,121.9,249.8z
			 M513.9,250c0.1-0.5,0.2-0.9,0.2-1.2c0-0.8,0-1.5-0.2-2.3c-2.1-11.9-4.7-23.7-8.6-35.3c-7.7-22.6-19.2-43-34.1-61.6
			c-0.9-1.1-1.6-1.4-3.1-0.8c-12.1,4.4-24.3,8.8-36.6,12.8c-2.9,0.9-3,2.1-2.4,4.5c6.6,26.5,10.4,53.4,11.8,80.7
			c0.1,2.7,0.9,3.5,3.7,3.5c22.2-0.1,44.3-0.1,66.5-0.1C511.9,250.1,512.9,250,513.9,250z M514.2,299.9c-0.9-0.2-1.2-0.2-1.4-0.2
			c-23.1,0-46.2,0-69.3-0.1c-1.9,0-2.4,0.8-2.5,2.5c-0.5,7.7-0.9,15.5-1.8,23.2c-1.5,12.1-3.3,24.1-5.2,36.1c-0.4,2.4,0.2,3.3,2.6,4
			c15,4.5,29.5,10.1,43.3,17.6c2.5,1.4,3.5,0.8,4.9-1.4c14.2-22.2,23.5-46.4,28.3-72.3C513.5,306.3,513.8,303.2,514.2,299.9z
			 M121.8,299.6c0.5,3.7,0.7,7.1,1.5,10.2c2.4,9.8,4.7,19.7,7.7,29.3c4.9,15.5,12.3,29.8,21,43.5c1,1.6,2,1.7,3.5,0.9
			c13.9-7.6,28.6-13.3,43.8-17.9c2.8-0.8,3.3-2,2.8-4.7c-3.7-19-6-38.2-6.8-57.6c-0.1-3.1-1.1-3.8-4-3.7c-22,0.1-43.9,0.1-65.9,0.1
			C124.4,299.6,123.5,299.6,121.8,299.6z M293.2,249.9c0.1-0.7,0.1-1.1,0.1-1.5c0-23.6,0-47.1,0.1-70.7c0-2.2-0.9-2.6-2.8-2.8
			c-10.7-0.9-21.4-1.8-32-2.9c-3.8-0.4-4-0.4-4.7,3.4c-1.5,8-3.3,16-4.3,24c-1.9,16.3-3.4,32.6-5,48.8c0,0.4,0.1,0.9,0.1,1.5
			C260.9,249.9,276.9,249.9,293.2,249.9z M391.6,250c0-0.8,0-1.3,0-1.8c-1.1-24.7-4.3-49.1-9.3-73.2c-0.6-2.7-1.7-3.2-4.3-2.9
			c-10.7,1.1-21.4,2.1-32.1,2.9c-2.6,0.2-3.1,1.1-3.1,3.4c0.1,22.9,0,45.8,0.1,68.8c0,0.9,0.1,1.8,0.1,2.8
			C359.3,250,375.2,250,391.6,250z M293.3,299.9c-16.4,0-32.5,0-49.4,0c1.9,18.2,3.7,36.1,5.5,54.2c2-0.2,3.2-0.4,4.4-0.5
			c10.8-1.2,21.5-2.5,32.3-3.4c7.2-0.6,7.2-0.4,7.2-7.5C293.3,328.5,293.3,314.4,293.3,299.9z M343,349.4
			c14.4,1.5,28.7,2.9,43.1,4.4c2.8-17.8,4.8-35.7,5.5-54c-16.4,0-32.4,0-48.6,0C343,316.5,343,333,343,349.4z M293.1,461.3
			c0-21,0-41.3,0-62.2c-10.2,1-20.1,1.9-30,2.8c-1.9,0.2-1.6,1.5-1.2,2.8c4,11.8,8.5,23.4,14.6,34.3
			C281,446.9,286,454.5,293.1,461.3z M343.1,399.2c0,20.9,0,41.2,0,61.9c0.6-0.5,0.9-0.7,1.2-0.9c1.2-1.2,2.4-2.5,3.5-3.8
			c12.8-15.4,20.2-33.5,26.5-52.1c0.5-1.4,0-2.2-1.5-2.3c-2.4-0.2-4.8-0.6-7.1-0.8C358.2,400.4,350.8,399.8,343.1,399.2z
			 M231.4,452.9c-5.8-14-11.4-27.6-17.3-41.7c-9.3,3.4-18.6,6.8-28.8,10.5C199.8,434.7,214.8,444.8,231.4,452.9z M449.9,422.5
			c0-0.4,0-0.7,0-1.1c-9.4-3.4-18.8-6.8-27.9-10.1c-5.9,14.1-11.5,27.7-17.3,41.6C421.3,444.9,436.3,434.7,449.9,422.5z M293.1,88.4
			C282.7,98.8,276,110.7,270,124c8.1,0.6,15.6,1.2,23.1,1.7C293.1,113.1,293.1,101.1,293.1,88.4z M366.1,124
			c-6-13.3-12.6-25.2-23.1-35.5c0,12.8,0,24.9,0,37.3C350.7,125.2,358.1,124.6,366.1,124z M207.2,110.5c0.1,0.3,0.2,0.6,0.3,0.8
			c3.3,1,6.5,2,9.8,2.9c5.8,1.6,5.8,1.6,8.4-4c2-4.3,4-8.7,6.1-13c-0.2-0.2-0.4-0.4-0.6-0.7C223.2,101.2,215.2,105.9,207.2,110.5z
			 M405,96.6c-0.2,0.2-0.3,0.4-0.5,0.7c2.6,5.8,5.2,11.6,7.9,17.3c0.2,0.5,1.3,1,1.8,0.8c4.8-1.3,9.6-2.7,14.4-4
			c0.1-0.3,0.1-0.7,0.2-1C420.8,105.8,412.9,101.2,405,96.6z"/>
		<path d="M713.9,470.8c0,15.7,0,30.8,0,46.3c-29.6,0-59.2,0-89.1,0c0,30,0,59.7,0,89.5c-15.6,0-30.9,0-46.5,0c0-29.8,0-59.4,0-89.3
			c-29.8,0-59.4,0-89.2,0c0-15.6,0-30.9,0-46.4c29.6,0,59.1,0,89,0c0-29.8,0-59.4,0-89.2c15.6,0,30.9,0,46.5,0c0,29.6,0,59.2,0,89.1
			C654.5,470.8,684.1,470.8,713.9,470.8z"/>
	</g>
</g>
</svg>
